<?xml version="1.0" standalone="no"?>
<!DOCTYPE svg PUBLIC "-//W3C//DTD SVG 1.1//EN" "http://www.w3.org/Graphics/SVG/1.1/DTD/svg11.dtd" >
<svg xmlns="http://www.w3.org/2000/svg">
<metadata></metadata>
<defs>
<font id="nobelbold" horiz-adv-x="1495" >
<font-face units-per-em="2048" ascent="1638" descent="-410" />
<missing-glyph horiz-adv-x="327" />
<glyph horiz-adv-x="819" d="M106 1264h154q6 -25 16.5 -50.5t29 -48t44 -37t60.5 -14.5t61.5 15.5t43.5 38t28.5 48t15.5 48.5h154q-12 -147 -95 -224t-208 -77t-208 76.5t-96 224.5z" />
<glyph horiz-adv-x="819" d="M279 973v266h258v-266h-258z" />
<glyph horiz-adv-x="819" d="M184 1180q0 45 18.5 86t49.5 71.5t72 49t86 18.5t86 -18.5t71.5 -49t49 -71.5t18.5 -86t-18.5 -86t-49 -72t-71.5 -49.5t-86 -18.5t-86 18.5t-72 49.5t-49.5 72t-18.5 86zM315 1180q0 -39 28 -67t67 -28t66.5 28t27.5 67t-27.5 66.5t-66.5 27.5t-67 -27.5t-28 -66.5z" />
<glyph unicode="&#xa;" horiz-adv-x="819" d="M16 973l191 342h252l-191 -342h-252zM360 973l191 342h252l-191 -342h-252z" />
<glyph horiz-adv-x="819" d="M154 -201q0 57 49 114.5t157 111.5h136q-51 -35 -85 -66t-53.5 -57.5t-27.5 -50t-8 -44.5q0 -45 24.5 -62t52.5 -17q41 0 71 9t67 34l55 -76q-80 -66 -203 -66q-43 0 -85 11.5t-75.5 33t-54 53t-20.5 72.5z" />
<glyph horiz-adv-x="819" d="M145 1274h191l72 -154l71 154h187l-170 -301h-181z" />
<glyph unicode="&#xd;" horiz-adv-x="327" />
<glyph horiz-adv-x="700" d="M-109 0l662 1495h256l-662 -1495h-256z" />
<glyph horiz-adv-x="917" d="M29 637v215h100v381q0 57 13.5 105t44 83t81.5 54.5t129 19.5q55 0 86 -10v-219q-10 4 -18 4h-19q-39 0 -50 -28t-11 -68v-322h100v-215h-100v-637h-256v637h-100zM590 0v852h256v-852h-256zM590 991v273h256v-273h-256z" />
<glyph horiz-adv-x="917" d="M29 637v215h100v381q0 57 13.5 105t44 83t81.5 54.5t129 19.5q55 0 86 -10v-219q-10 4 -18 4h-19q-39 0 -50 -28t-11 -68v-322h100v-215h-100v-637h-256v637h-100zM590 0v1495h256v-1495h-256z" />
<glyph horiz-adv-x="831" d="M-12 762l155 63v670h287v-551l186 76l91 -201l-277 -114v-461h354v-244h-641v588l-63 -27z" />
<glyph horiz-adv-x="542" d="M-12 762l155 63v670h256v-563l66 26l90 -200l-156 -66v-692h-256v588l-63 -27z" />
<glyph horiz-adv-x="958" d="M27 0l503 1212q4 6 7.5 13.5t7.5 13.5q4 8 8 14q-8 -2 -16 -2h-33h-400v244h832l-498 -1214q-6 -12 -14 -27l-6 -12h12q6 0 12.5 1t14.5 1h430v-244h-860zM237 1899h191l72 -154l71 154h187l-170 -301h-181z" />
<glyph horiz-adv-x="757" d="M35 0l311 606q8 16 14 23q4 6 11 10q-8 -2 -17 -2h-26h-254v215h647l-299 -600q-4 -8 -8 -14.5t-8 -12.5l-9 -12h13q4 0 11 1t15 1h260v-215h-661zM127 1274h191l72 -154l71 154h187l-170 -301h-181z" />
<glyph unicode=" "  horiz-adv-x="327" />
<glyph unicode="&#x09;" horiz-adv-x="327" />
<glyph unicode="&#xa0;" horiz-adv-x="327" />
<glyph unicode="!" horiz-adv-x="477" d="M102 0v289h273v-289h-273zM102 883v612h273v-612l-56 -521h-161z" />
<glyph unicode="&#x22;" horiz-adv-x="794" d="M82 1255v240h254v-240l-55 -270h-144zM459 1255v240h254v-240l-56 -270h-143z" />
<glyph unicode="#" horiz-adv-x="1302" d="M102 383v201h193l29 334h-222v200h240l33 377h229l-33 -377h226l32 377h230l-33 -377h174v-200h-192l-29 -334h221v-201h-239l-33 -383h-230l33 383h-225l-33 -383h-229l32 383h-174zM524 584h226l28 334h-225z" />
<glyph unicode="$" horiz-adv-x="862" d="M33 231l213 172q35 -78 80 -116.5t84 -38.5q100 0 100 129q0 43 -22.5 84t-59.5 84t-82 90t-90 102q-37 45 -70.5 90t-60.5 93.5t-42 100.5t-15 112q0 63 18 122.5t56 107.5t94.5 82t130.5 46v104h139v-100q104 -12 173 -70.5t116 -138.5l-197 -164q-31 53 -63.5 89 t-79.5 36q-53 0 -75 -28.5t-22 -75.5q0 -39 16.5 -74t43 -69.5t62.5 -71.5t73 -80q45 -51 90 -102.5t82 -106.5t59.5 -116.5t22.5 -135.5q0 -78 -23.5 -142.5t-66.5 -114.5t-102.5 -83t-129.5 -45v-147h-139v145q-102 16 -183 78.5t-130 152.5z" />
<glyph unicode="%" horiz-adv-x="1427" d="M55 1133q0 82 18.5 152.5t55.5 122.5t89 82t120 30q70 0 122 -31t87 -83t52 -120.5t17 -146.5q0 -84 -18 -155t-55 -124t-90.5 -82.5t-120.5 -29.5q-55 0 -104.5 23.5t-88.5 71.5t-61.5 120.5t-22.5 169.5zM123 0l899 1495h258l-899 -1495h-258zM250 1133q0 -39 4 -76 t13 -65.5t25.5 -46t39.5 -17.5q25 0 42 17.5t27.5 46t14.5 65.5t4 76q0 37 -4 74.5t-14.5 66.5t-27 47t-38.5 18q-23 0 -39 -17t-26.5 -46t-15.5 -67t-5 -76zM791 360q0 82 18 153t55 123t89.5 82t119.5 30q70 0 122 -31t87 -83t52.5 -120.5t17.5 -146.5q0 -84 -18.5 -155 t-55.5 -124t-90 -83t-121 -30q-55 0 -104.5 24t-88 72t-61 120.5t-22.5 168.5zM985 360q0 -39 4 -75.5t13.5 -65.5t25.5 -46t39 -17q25 0 42 17t27.5 46t14.5 65.5t4 75.5q0 37 -4 75t-14.5 66.5t-26.5 47t-39 18.5t-39 -17.5t-26.5 -46t-15.5 -66.5t-5 -77z" />
<glyph unicode="&#x26;" horiz-adv-x="1034" d="M45 354q0 82 19.5 147.5t52.5 119t73.5 97.5t81.5 85q-61 109 -103 208t-42 210q0 59 21.5 113.5t59.5 95t89 65.5t111 25q70 0 124 -29t90.5 -76t56 -105.5t19.5 -119.5q0 -129 -49 -218t-112 -165l172 -305q29 51 55.5 104t50.5 111l133 -230q-23 -49 -53.5 -98 t-65.5 -100l164 -289h-278l-56 100q-57 -57 -124.5 -91t-143.5 -34t-139.5 28t-109.5 78t-71.5 119.5t-25.5 153.5zM315 373q0 -72 30 -109t81 -37q31 0 64.5 15.5t62.5 48.5l-174 311q-29 -47 -46.5 -103.5t-17.5 -125.5zM348 1217q0 -53 22.5 -114t57.5 -124 q25 43 42 100.5t17 120.5q0 53 -15 90t-56 37q-39 0 -53.5 -31.5t-14.5 -78.5z" />
<glyph unicode="'" horiz-adv-x="417" d="M82 1255v240h254v-240l-55 -270h-144z" />
<glyph unicode="(" horiz-adv-x="573" d="M61 575q0 276 110 515t351 430v-203q-109 -186 -152.5 -364.5t-43.5 -377.5q0 -100 10 -192t33.5 -183t60.5 -183.5t92 -190.5v-193q-242 195 -351.5 430.5t-109.5 511.5z" />
<glyph unicode=")" horiz-adv-x="573" d="M51 -170q55 92 92 182t60.5 181.5t34 184.5t10.5 193t-10.5 192.5t-34 183.5t-60.5 183.5t-92 190.5v192q242 -195 351.5 -430.5t109.5 -511.5t-109.5 -514.5t-351.5 -429.5v203z" />
<glyph unicode="*" horiz-adv-x="831" d="M31 1169l39 123l241 -37l39 240h127l37 -240l242 37l45 -121l-217 -114l106 -215l-102 -78l-174 172l-172 -170l-105 74l109 219z" />
<glyph unicode="+" horiz-adv-x="925" d="M61 559v238h279v303h246v-303h278v-238h-278v-303h-246v303h-279z" />
<glyph unicode="," horiz-adv-x="436" d="M18 -262q29 45 46.5 115.5t17.5 166.5v269h272v-207q0 -61 -14 -115.5t-35.5 -98.5t-47.5 -77t-50 -53h-189z" />
<glyph unicode="-" horiz-adv-x="501" d="M72 375v225h358v-225h-358z" />
<glyph unicode="." horiz-adv-x="436" d="M82 0v289h272v-289h-272z" />
<glyph unicode="/" horiz-adv-x="544" d="M41 0l231 1495h232l-232 -1495h-231z" />
<glyph unicode="0" horiz-adv-x="940" d="M51 748q0 127 20.5 263t69.5 249.5t129 186.5t199 73t199 -73t129 -186.5t70.5 -249.5t21.5 -263t-21.5 -263.5t-70.5 -250t-129 -186.5t-199 -73t-199 73t-129 186.5t-69.5 250t-20.5 263.5zM338 748q0 -104 5 -197.5t18.5 -162.5t39 -109.5t68.5 -40.5t68.5 40.5 t40 109.5t19.5 162.5t5 197.5t-5 197t-19.5 162t-40 109.5t-68.5 40.5t-68.5 -40.5t-39 -109.5t-18.5 -162t-5 -197z" />
<glyph unicode="1" horiz-adv-x="608" d="M45 997v256q37 8 76 30t71.5 52.5t57 71.5t35.5 88h221v-1495h-287v1083q-16 -14 -38.5 -27.5t-47 -25.5t-47.5 -21.5t-41 -11.5z" />
<glyph unicode="2" horiz-adv-x="894" d="M35 0l387 799q31 63 64.5 159.5t33.5 198.5q0 41 -19.5 80t-60.5 39q-47 0 -75.5 -47t-28.5 -119v-53h-256v90q0 88 29.5 157.5t81 119t120 76t148.5 26.5q84 0 150.5 -29t112.5 -78t70.5 -113.5t24.5 -134.5q0 -174 -129 -444l-225 -471h344v-256h-772z" />
<glyph unicode="3" horiz-adv-x="890" d="M29 217l207 172q29 -66 63.5 -103.5t93.5 -37.5q76 0 101.5 57t25.5 158q0 43 -8 82t-27.5 69.5t-51.5 48t-79 17.5h-63v233h39q98 0 137 50.5t39 150.5q0 27 -4 54.5t-14.5 51t-30 38t-49.5 14.5q-31 0 -51.5 -18.5t-33 -46t-16.5 -60.5t-4 -64l-248 95q25 160 111 251 t252 91q84 0 153.5 -30t118.5 -81t76 -119.5t27 -148.5q0 -106 -43 -191.5t-134 -126.5q45 -18 82 -54t63.5 -85t41 -106.5t14.5 -116.5q0 -102 -30.5 -190.5t-87 -154t-135.5 -103.5t-173 -38q-129 0 -218 67t-144 175z" />
<glyph unicode="4" horiz-adv-x="862" d="M31 317v211l471 967h213v-958h114v-220h-114v-317h-264v317h-420zM256 537h195v434z" />
<glyph unicode="5" horiz-adv-x="888" d="M63 174l197 170q14 -51 49 -89t82 -38q82 0 115 85t33 218q0 43 -3.5 91t-13.5 89t-30.5 69t-57.5 28q-53 0 -75.5 -60.5t-26.5 -140.5l-213 61l22 838h631v-246h-410l-8 -286q66 78 174 77q88 0 146.5 -46t94.5 -118.5t51.5 -161.5t15.5 -175q0 -115 -28 -216.5 t-81 -179t-132 -123t-181 -45.5q-117 0 -202 50.5t-149 148.5z" />
<glyph unicode="6" horiz-adv-x="872" d="M51 489q0 178 80 435.5t246 570.5h295q-25 -43 -58.5 -110.5t-69.5 -143.5t-68 -148.5t-50 -123.5q16 12 43 18t49 6q82 0 139.5 -40t94 -105.5t53 -150.5t16.5 -173q0 -111 -24.5 -210t-72.5 -175t-121 -120t-171 -44q-94 0 -165.5 42t-119 113t-72 164t-24.5 195z M334 487q0 -57 5 -107t16.5 -88t29.5 -59.5t47 -21.5q59 0 83 78t24 207q0 55 -4.5 103t-14.5 85t-31.5 58.5t-54.5 21.5q-31 0 -50 -24.5t-30.5 -63.5t-15.5 -89t-4 -100z" />
<glyph unicode="7" horiz-adv-x="854" d="M94 0l387 1249h-387v246h735l-446 -1495h-289z" />
<glyph unicode="8" horiz-adv-x="905" d="M49 436q0 117 36 207t122 168q-47 53 -81 125t-34 184q0 76 21.5 147.5t65.5 128t111.5 90.5t162.5 34q92 0 160.5 -34t112.5 -89.5t65.5 -128t21.5 -148.5q0 -113 -34 -184.5t-81 -124.5q86 -78 122 -168t36 -207q0 -88 -29.5 -171t-84 -147.5t-128 -103.5t-161.5 -39 t-162 39t-128 103.5t-84 147.5t-30 171zM324 446q0 -39 6 -78.5t21.5 -72.5t40 -53.5t61.5 -20.5t61.5 20.5t39.5 53.5t21.5 72.5t6.5 78.5t-6.5 81t-20.5 78t-38.5 59.5t-63.5 23.5t-63.5 -23.5t-39 -59.5t-20.5 -78t-6 -81zM352 1102q0 -33 3 -68t14.5 -64.5t31 -49 t52.5 -19.5t52 19.5t29.5 49t14.5 64.5t4 68q0 29 -5 61.5t-16.5 60t-31 46t-47.5 18.5q-31 0 -50.5 -17.5t-31 -45t-15.5 -60t-4 -63.5z" />
<glyph unicode="9" horiz-adv-x="872" d="M37 971q0 111 24.5 210t72.5 175t121 120t171 44q94 0 166 -42t119 -113t71.5 -164t24.5 -195q0 -88 -18.5 -205t-57.5 -250t-100.5 -279.5t-147.5 -296.5l-235 134q25 43 53.5 94t56 105t54 110.5t45.5 107.5q-16 -12 -43 -18t-49 -6q-82 0 -143.5 40t-102.5 105.5 t-61.5 149.5t-20.5 174zM317 999q0 -55 4.5 -105t16.5 -89t34.5 -62.5t59.5 -23.5q33 0 53.5 26.5t32.5 67.5t16.5 93.5t4.5 101.5q0 57 -5.5 107t-18.5 88t-34.5 59.5t-52.5 21.5q-66 0 -88.5 -78t-22.5 -207z" />
<glyph unicode=":" horiz-adv-x="436" d="M82 0v289h272v-289h-272zM82 563v289h272v-289h-272z" />
<glyph unicode=";" horiz-adv-x="436" d="M18 -262q29 45 46.5 115.5t17.5 166.5v269h272v-207q0 -61 -14 -115.5t-35.5 -98.5t-47.5 -77t-50 -53h-189zM82 563v289h272v-289h-272z" />
<glyph unicode="&#x3c;" horiz-adv-x="614" d="M57 547v235l482 365v-281l-287 -200l287 -203v-285z" />
<glyph unicode="=" horiz-adv-x="905" d="M92 324v245h721v-245h-721zM92 795v245h721v-245h-721z" />
<glyph unicode="&#x3e;" horiz-adv-x="614" d="M76 184v281l286 201l-286 202v285l481 -369v-235z" />
<glyph unicode="?" horiz-adv-x="718" d="M16 1227q8 63 36 117.5t71 93.5t99.5 60.5t119.5 21.5q84 0 147.5 -30t105.5 -78t63.5 -107.5t21.5 -118.5q0 -70 -14.5 -123t-36 -98t-48 -88t-51.5 -93q-33 -63 -54 -143t-21 -199v-65h-232v82q0 154 23.5 251t54.5 164q20 43 40.5 79t37 70t27 69.5t10.5 78.5 q0 33 -19.5 69t-66.5 36q-27 0 -46.5 -16.5t-32.5 -43t-18.5 -57.5t-3.5 -57zM223 0v299h232v-299h-232z" />
<glyph unicode="@" horiz-adv-x="1728" d="M92 748q0 160 60.5 300t166 245.5t246 166t299.5 60.5q174 0 317.5 -55.5t244 -153t155.5 -226.5t55 -276q0 -131 -41 -225.5t-100 -155.5t-123.5 -90t-109.5 -29q-76 0 -132.5 25.5t-85.5 66.5q-59 -43 -123.5 -67.5t-142.5 -24.5q-80 0 -139 22.5t-99 61.5t-60.5 91.5 t-20.5 111.5q0 76 35.5 133t97 97t146.5 60.5t184 20.5h116q0 78 -36.5 103.5t-122.5 25.5q-160 0 -267 -47l-63 166q31 18 68.5 30.5t79.5 19.5t83 11.5t76 4.5q178 0 285.5 -58.5t107.5 -195.5v-471q0 -27 14.5 -37t34.5 -10q33 0 71 21.5t69.5 64.5t53 108.5t21.5 153.5 q0 125 -45 232.5t-129 187t-203.5 126t-269.5 46.5q-133 0 -250.5 -49.5t-205.5 -136.5t-138.5 -205.5t-50.5 -258.5q0 -139 50.5 -256.5t138.5 -203.5t205.5 -135.5t250.5 -49.5q57 0 123 10.5t137 45.5l50 -107q-86 -39 -163 -53.5t-149 -14.5q-160 0 -300 60.5 t-245.5 166t-166 246t-60.5 300.5zM678 598q0 -47 33.5 -72.5t119.5 -25.5q66 0 113 16t90 53v160h-106q-123 0 -186.5 -35t-63.5 -96z" />
<glyph unicode="A" horiz-adv-x="1046" d="M41 0l381 1495h190l373 -1495h-289l-45 238h-280l-45 -238h-285zM412 449h198l-84 442q-8 33 -10 59q-2 16 -4 33q-2 -16 -4 -33q-2 -14 -5 -29.5t-5 -29.5z" />
<glyph unicode="B" horiz-adv-x="919" d="M102 0v1495h291q80 0 159 -20.5t141.5 -67.5t102.5 -124t40 -187q0 -59 -17.5 -110.5t-48.5 -93.5t-72 -73t-86 -45q49 -14 95.5 -40.5t82 -69.5t56 -103.5t20.5 -140.5q0 -125 -45 -206t-112.5 -129t-146.5 -66.5t-148 -18.5h-312zM379 233q98 0 154.5 51.5t56.5 153.5 q0 55 -18.5 94t-49 64t-68.5 35t-75 10v-408zM379 864q84 0 132 58.5t48 152.5q0 88 -48 137.5t-132 49.5v-398z" />
<glyph unicode="C" horiz-adv-x="907" d="M61 748q0 133 31 270t93.5 248.5t158.5 182.5t229 71q96 0 160 -26t117 -75l-123 -252q-27 53 -61.5 77t-92.5 24q-59 0 -100 -50.5t-66.5 -127t-37 -169t-11.5 -173.5q0 -82 11.5 -174.5t37 -170t66.5 -129t100 -51.5q45 0 87 26.5t65 69.5l121 -235q-43 -49 -115 -79 t-158 -30q-133 0 -229 71t-158.5 182.5t-93.5 248.5t-31 271z" />
<glyph unicode="D" horiz-adv-x="999" d="M102 0v1495h322q131 0 228.5 -66.5t161 -173t94 -240.5t30.5 -267t-30.5 -267.5t-94 -241t-161 -173t-228.5 -66.5h-322zM389 252h35q66 0 107.5 47t66.5 118.5t34 160t9 170.5t-9 170t-34 159.5t-67 118.5t-107 47h-35v-991z" />
<glyph unicode="E" horiz-adv-x="858" d="M102 0v1495h652v-244h-365v-374h338v-244h-338v-389h371v-244h-658z" />
<glyph unicode="F" horiz-adv-x="811" d="M102 0v1495h641v-244h-354v-374h328v-244h-328v-633h-287z" />
<glyph unicode="G" horiz-adv-x="1013" d="M61 748q0 133 28 270t86 248.5t151.5 182.5t226.5 71q109 0 189.5 -48.5t140.5 -128.5l-172 -239q-20 63 -60.5 113.5t-97.5 50.5q-59 0 -97 -50.5t-59.5 -127t-30 -169t-8.5 -173.5q0 -82 8.5 -174.5t30 -170t59.5 -129t97 -51.5q29 0 55.5 10.5t44.5 32.5v361h-180v225 h451v-653q-59 -100 -153.5 -162t-217.5 -62q-133 0 -226.5 71t-151.5 182.5t-86 248.5t-28 271z" />
<glyph unicode="H" horiz-adv-x="1032" d="M102 0v1495h287v-618h254v618h287v-1495h-287v633h-254v-633h-287z" />
<glyph unicode="I" horiz-adv-x="491" d="M102 0v1495h287v-1495h-287z" />
<glyph unicode="J" horiz-adv-x="618" d="M61 0v244h48q72 0 98 40t26 132v1079h287v-1096q0 -207 -81 -303t-242 -96h-136z" />
<glyph unicode="K" horiz-adv-x="995" d="M102 0v1495h287v-504l273 504h299l-355 -600l357 -895h-308l-239 655l-27 -49v-606h-287z" />
<glyph unicode="L" horiz-adv-x="790" d="M102 0v1495h287v-1251h354v-244h-641z" />
<glyph unicode="M" horiz-adv-x="1302" d="M102 0v1495h267l258 -618q4 -10 9 -24.5t9 -31.5q6 -18 12 -37q6 16 13 35q4 16 10 31.5t10 28.5l254 616h256v-1495h-280v786v28.5t2 33.5q0 18 2 39q-6 -18 -13 -37q-6 -16 -12 -32.5t-10 -29.5l-164 -426h-154l-159 431q-10 25 -21 57q-6 18 -12 37q0 -16 2 -35 q0 -16 1 -32.5t1 -28.5v-791h-281z" />
<glyph unicode="N" horiz-adv-x="1056" d="M102 0v1495h226l317 -741q4 -8 8 -20.5t9 -24.5q6 -14 12 -31q-2 16 -4 31q-2 12 -2 26.5v24.5v735h286v-1495h-235l-301 686l-33 82q0 -14 2 -29q0 -12 1 -27.5t1 -29.5v-682h-287z" />
<glyph unicode="O" horiz-adv-x="1107" d="M61 748q0 133 28 270t86 248.5t151.5 182.5t226.5 71q131 0 225 -71t153.5 -182.5t87.5 -248.5t28 -270t-28 -270.5t-87.5 -249t-153.5 -182.5t-225 -71q-133 0 -226.5 71t-151.5 182.5t-86 248.5t-28 271zM358 748q0 -82 8.5 -174.5t30 -169t59.5 -127t97 -50.5t97 50.5 t60.5 127t31 169t8.5 174.5t-8.5 174t-31 168.5t-60.5 127t-97 50.5t-97 -50.5t-59.5 -127t-30 -169t-8.5 -173.5z" />
<glyph unicode="P" horiz-adv-x="886" d="M102 0v1495h291q80 0 160 -23.5t145.5 -79t106.5 -144.5t41 -220q0 -127 -36 -219t-98.5 -151.5t-145.5 -89t-177 -29.5v-539h-287zM389 786q86 0 123 64.5t37 177.5t-37 169t-123 56v-467z" />
<glyph unicode="Q" horiz-adv-x="1107" d="M61 748q0 133 28 270t86 248.5t151.5 182.5t226.5 71q131 0 225 -71t153.5 -182.5t87.5 -248.5t28 -270q0 -154 -36 -307.5t-114 -270.5q82 -66 150 -98l-156 -172q-29 16 -66 49t-75 78q-90 -51 -197 -52q-133 0 -226.5 71t-151.5 182.5t-86 248.5t-28 271zM358 748 q0 -82 8.5 -174.5t30 -169t59.5 -127t97 -50.5q25 0 41 9q-31 47 -54.5 91t-33.5 74l100 99q27 -66 88 -140q33 80 44.5 186t11.5 202q0 82 -8.5 174t-31 168.5t-60.5 127t-97 50.5t-97 -50.5t-59.5 -127t-30 -169t-8.5 -173.5z" />
<glyph unicode="R" horiz-adv-x="944" d="M102 0v1495h291q80 0 160 -22.5t145.5 -77t106.5 -142.5t41 -219q0 -160 -56.5 -249t-142.5 -128l248 -657h-291l-215 637v-637h-287zM389 803q86 0 123 59t37 172t-37 166t-123 53v-450z" />
<glyph unicode="S" horiz-adv-x="901" d="M53 211l213 172q35 -78 80 -117t84 -39q100 0 100 129q0 43 -22.5 87t-59 91.5t-81.5 97.5t-91 105q-74 92 -131 193.5t-57 222.5q0 72 24.5 138.5t72.5 116.5t121 81t169 31q125 0 206 -61.5t134 -151.5l-197 -164q-31 53 -63.5 89t-79.5 36q-53 0 -74.5 -29t-21.5 -76 q0 -39 16.5 -76.5t43 -76.5t62.5 -79t72 -83q45 -51 90.5 -105.5t82 -114t59 -123.5t22.5 -138q0 -88 -30.5 -160t-84 -123t-127 -80t-159.5 -29q-123 0 -219 67t-154 169z" />
<glyph unicode="T" horiz-adv-x="790" d="M41 1251v244h709v-244h-211v-1251h-287v1251h-211z" />
<glyph unicode="U" horiz-adv-x="1011" d="M92 479v1016h287v-1016q0 -133 28.5 -189.5t98.5 -56.5t98.5 56.5t28.5 189.5v1016h287v-1016q0 -106 -25 -198.5t-76 -160t-129 -106.5t-184 -39t-184 39t-129.5 106.5t-76 160t-24.5 198.5z" />
<glyph unicode="V" horiz-adv-x="985" d="M41 1495h283l153 -840q2 -16 5 -32.5t5 -32.5q2 -18 5 -37q2 16 4 35q2 16 4 33.5t6 33.5l160 840h278l-321 -1495h-261z" />
<glyph unicode="W" horiz-adv-x="1601" d="M41 1495h283l153 -833q2 -14 5 -33t5 -35q2 -20 5 -41q2 18 4 39q2 16 4 34.5t6 35.5l174 833h221l191 -831q4 -16 5 -36t5 -36q2 -20 6 -39q2 20 4 41q2 16 4 34.5t6 35.5l160 831h279l-322 -1495h-254q-51 227 -88 406q-16 76 -31.5 149.5t-28 130.5t-19.5 93l-7 36 q-6 27 -10 66q-2 20 -4 39q-2 -20 -4 -39q-2 -33 -11 -66l-174 -815h-246z" />
<glyph unicode="X" horiz-adv-x="1046" d="M41 0l340 791l-299 704h297l119 -321q4 -10 8 -25.5t8 -28.5q4 -16 8 -30q4 16 8 30q4 12 7.5 26.5t7.5 24.5l123 324h297l-299 -704l340 -791h-297l-156 393q-4 12 -9 27.5t-9 30.5q-6 16 -11 32l-8 -32q-4 -14 -9 -28.5t-9 -27.5l-160 -395h-297z" />
<glyph unicode="Y" horiz-adv-x="964" d="M20 1495h302l141 -444q4 -12 7 -26.5t7 -29.5q4 -16 6 -30q4 14 9 30q4 14 7 29.5t7 28.5l141 442h297l-319 -838v-657h-287v662z" />
<glyph unicode="Z" horiz-adv-x="958" d="M27 0l503 1212q4 6 7.5 13.5t7.5 13.5q4 8 8 14q-8 -2 -16 -2h-33h-400v244h832l-498 -1214q-6 -12 -14 -27l-6 -12h12q6 0 12.5 1t14.5 1h430v-244h-860z" />
<glyph unicode="[" horiz-adv-x="645" d="M102 -367v1862h471v-254h-194v-1354h194v-254h-471z" />
<glyph unicode="\" horiz-adv-x="544" d="M41 1495h231l232 -1495h-232z" />
<glyph unicode="]" horiz-adv-x="645" d="M72 -113h194v1354h-194v254h471v-1862h-471v254z" />
<glyph unicode="^" horiz-adv-x="1030" d="M61 797l314 698h276l318 -698h-297l-162 422l-160 -422h-289z" />
<glyph unicode="_" horiz-adv-x="1024" d="M0 -129h1024v-225h-1024v225z" />
<glyph unicode="`" horiz-adv-x="819" d="M176 1315h246l158 -342h-197z" />
<glyph unicode="a" horiz-adv-x="755" d="M35 256q0 76 38 134.5t96 97t129 58t134 19.5q0 27 -1 51.5t-8 43t-22.5 28.5t-44.5 10q-55 0 -103 -15t-81 -38l-68 150q47 41 126 61.5t165 20.5q88 0 144.5 -24t89.5 -59.5t46 -75.5t13 -73v-645h-256v66q-23 -39 -72 -65t-98 -26q-94 0 -160.5 70t-66.5 211zM285 266 q0 -39 20.5 -62.5t61.5 -23.5t65 31v205q-25 0 -51.5 -8.5t-48 -25.5t-34.5 -46t-13 -70z" />
<glyph unicode="b" horiz-adv-x="772" d="M72 0v1495h256v-709q23 39 56.5 65t82.5 26q68 0 118 -39t81.5 -101.5t48 -143.5t16.5 -167t-16.5 -167t-48 -143.5t-81.5 -101.5t-118 -39q-49 0 -83 26t-56 65v-66h-256zM303 426q0 -229 90 -229t90 229t-90 229t-90 -229z" />
<glyph unicode="c" horiz-adv-x="706" d="M41 426q0 86 22.5 167t66.5 143.5t108.5 101.5t148.5 39q100 0 171 -51.5t114 -135.5l-174 -141q-16 57 -42 81.5t-69 24.5q-90 0 -90 -229t90 -229q41 0 69.5 31.5t41.5 86.5l174 -155q-43 -82 -115 -133.5t-170 -51.5q-84 0 -148.5 39t-108.5 101.5t-66.5 143.5 t-22.5 167z" />
<glyph unicode="d" horiz-adv-x="772" d="M41 426q0 86 16.5 167t48 143.5t82 101.5t117.5 39q49 0 83 -26t56 -65v709h256v-1495h-256v66q-23 -39 -56.5 -65t-82.5 -26q-68 0 -118 39t-81.5 101.5t-48 143.5t-16.5 167zM289 426q0 -229 90 -229t90 229t-90 229t-90 -229z" />
<glyph unicode="e" horiz-adv-x="741" d="M41 426q0 86 20.5 167t62.5 143.5t105.5 101.5t147.5 39q90 0 150.5 -40t96 -105.5t51 -147.5t15.5 -168v-26.5t-2 -27.5h-399q4 -96 36.5 -137t73.5 -41q47 0 80 27t58 68l145 -132q-49 -82 -119.5 -127t-175.5 -45q-84 0 -148.5 36t-108.5 97.5t-66.5 143.5t-22.5 174z M289 512h174q0 33 -4 63.5t-14.5 55t-27 40t-40.5 15.5q-25 0 -41.5 -15.5t-26.5 -40t-14 -55t-6 -63.5z" />
<glyph unicode="f" horiz-adv-x="518" d="M29 637v215h100v381q0 57 13.5 105t44 83t81.5 54.5t129 19.5q55 0 86 -10v-219q-10 4 -18 4h-19q-39 0 -50 -28t-11 -68v-322h100v-215h-100v-637h-256v637h-100z" />
<glyph unicode="g" horiz-adv-x="772" d="M41 426q0 86 16.5 167t48 143.5t82 101.5t117.5 39q49 0 83 -26t56 -65v66h256v-864q0 -162 -80.5 -258.5t-254.5 -96.5q-117 0 -193 32t-123 79l129 160q27 -29 65 -45.5t85 -16.5t81.5 27t34.5 100v97q-23 -39 -56.5 -65t-82.5 -26q-68 0 -118 39t-81.5 101.5 t-48 143.5t-16.5 167zM289 426q0 -229 90 -229t90 229t-90 229t-90 -229z" />
<glyph unicode="h" horiz-adv-x="772" d="M72 0v1495h256v-731q35 53 84 83t114 30q51 0 87 -21.5t57.5 -53.5t31 -71t9.5 -76v-655h-256v528q0 35 -11.5 69t-48.5 34q-39 0 -53 -34t-14 -69v-528h-256z" />
<glyph unicode="i" horiz-adv-x="399" d="M72 0v852h256v-852h-256zM72 991v273h256v-273h-256z" />
<glyph unicode="j" horiz-adv-x="399" d="M-27 -137q10 -4 18.5 -4h18.5q39 0 50.5 27.5t11.5 68.5v897h256v-915q0 -57 -13.5 -111.5t-44 -97.5t-83 -69t-128.5 -26q-55 0 -86 11v219zM72 991v273h256v-273h-256z" />
<glyph unicode="k" horiz-adv-x="778" d="M72 0v1495h256v-901l164 258h249l-206 -317l210 -535h-251l-123 334l-43 -68v-266h-256z" />
<glyph unicode="l" horiz-adv-x="399" d="M72 0v1495h256v-1495h-256z" />
<glyph unicode="m" horiz-adv-x="1155" d="M72 0v852h256v-88q35 53 84 83t114 30q72 0 118 -40t58 -94q37 63 89.5 98.5t117.5 35.5q51 0 87 -21.5t57.5 -53.5t31 -71t9.5 -76v-655h-256v528q0 35 -11.5 69t-48.5 34q-39 0 -53 -34t-14 -69v-528h-256v528q0 35 -11.5 69t-48.5 34q-39 0 -53 -34t-14 -69v-528h-256 z" />
<glyph unicode="n" horiz-adv-x="772" d="M72 0v852h256v-88q35 53 84 83t114 30q51 0 87 -21.5t57.5 -53.5t31 -71t9.5 -76v-655h-256v528q0 35 -11.5 69t-48.5 34q-39 0 -53 -34t-14 -69v-528h-256z" />
<glyph unicode="o" horiz-adv-x="774" d="M41 426q0 86 22.5 167t66.5 143.5t108.5 101.5t148.5 39t148.5 -39t108.5 -101.5t66.5 -143.5t22.5 -167t-22.5 -167t-66.5 -143.5t-108.5 -101.5t-148.5 -39t-148.5 39t-108.5 101.5t-66.5 143.5t-22.5 167zM297 426q0 -229 90 -229t90 229t-90 229t-90 -229z" />
<glyph unicode="p" horiz-adv-x="772" d="M72 -367v1219h256v-66q23 39 56.5 65t82.5 26q68 0 118 -39t81.5 -101.5t48 -143.5t16.5 -167t-16.5 -167t-48 -143.5t-81.5 -101.5t-118 -39q-49 0 -83 26t-56 65v-433h-256zM303 426q0 -229 90 -229t90 229t-90 229t-90 -229z" />
<glyph unicode="q" horiz-adv-x="772" d="M41 426q0 86 16.5 167t48 143.5t82 101.5t117.5 39q49 0 83 -26t56 -65v66h256v-1219h-256v433q-23 -39 -56.5 -65t-82.5 -26q-68 0 -118 39t-81.5 101.5t-48 143.5t-16.5 167zM289 426q0 -229 90 -229t90 229t-90 229t-90 -229z" />
<glyph unicode="r" horiz-adv-x="530" d="M72 0v852h256v-88q29 45 75 74.5t93 38.5v-261q-41 -6 -72 -28.5t-52.5 -56t-32.5 -75.5t-11 -87v-369h-256z" />
<glyph unicode="s" horiz-adv-x="626" d="M39 74l115 159q67 -67 151 -67h2q27 0 38 16.5t11 34.5q0 29 -44 62.5t-97 78.5q-59 49 -107.5 115t-48.5 156q0 49 17.5 94t52.5 79t86 54.5t119 20.5q72 0 134 -29t103 -74l-112 -158q-23 29 -51.5 49.5t-63.5 20.5q-25 0 -37 -12t-12 -29q0 -16 13.5 -33.5t36 -37 t51 -41t57.5 -48.5q53 -47 94 -110.5t41 -151.5q0 -113 -73 -180.5t-208 -67.5q-86 0 -150.5 28t-117.5 71z" />
<glyph unicode="t" horiz-adv-x="522" d="M23 637v215h90v387h256v-387h100v-215h-100v-363q0 -63 63 -63h35v-223h-109q-133 0 -189 67.5t-56 182.5v399h-90z" />
<glyph unicode="u" horiz-adv-x="772" d="M61 197v655h256v-528q0 -35 11.5 -69t48.5 -34q39 0 53 34t14 69v528h256v-852h-256v88q-35 -53 -84 -83t-114 -30q-53 0 -88 21.5t-56.5 53.5t-31 71t-9.5 76z" />
<glyph unicode="v" horiz-adv-x="745" d="M20 852h250l88 -340q4 -23 11 -47q4 -12 6 -27q2 14 6 27q4 10 5 23.5t5 23.5l84 340h250l-297 -852h-111z" />
<glyph unicode="w" horiz-adv-x="1011" d="M20 852h232l102 -365q4 -23 11 -45q4 -12 6 -26q2 14 6 28q4 10 5 22.5t5 20.5l121 431l123 -435q2 -10 5 -21t5 -22l4 -24l4 24q4 25 10 45l101 367h231l-260 -852h-127l-80 258q-4 10 -6 22.5t-6 22.5q-4 12 -6 25q-4 -12 -6 -25q-4 -10 -5 -22.5t-6 -20.5l-81 -260 h-127z" />
<glyph unicode="x" horiz-adv-x="757" d="M29 0l231 440l-221 412h256l61 -139q8 -20 15 -39q4 -10 8 -23q2 12 8 25q4 10 8 20.5t8 18.5l60 137h256l-221 -410l231 -442h-256l-72 164q-4 10 -7 20.5t-7 20.5l-8 24l-8 -24q-4 -10 -7.5 -20.5t-7.5 -20.5l-71 -164h-256z" />
<glyph unicode="y" horiz-adv-x="765" d="M20 852h250l99 -410q4 -27 10 -55q4 -16 6 -35q2 18 6 35q4 14 5 29.5t5 27.5l95 408h249l-292 -1012q-10 -37 -27.5 -73.5t-45.5 -66.5t-71 -48.5t-104 -18.5q-55 0 -86 11v219q10 -4 18 -4h19q39 0 65.5 17.5t36.5 60.5l16 63z" />
<glyph unicode="z" horiz-adv-x="757" d="M35 0l311 606q8 16 14 23q4 6 11 10q-8 -2 -17 -2h-26h-254v215h647l-299 -600q-4 -8 -8 -14.5t-8 -12.5l-9 -12h13q4 0 11 1t15 1h260v-215h-661z" />
<glyph unicode="{" horiz-adv-x="645" d="M31 457v237q53 8 83.5 28.5t46 54.5t19.5 82t4 114q0 113 21.5 206t71 162.5t128 114.5t191.5 64v-226q-35 -27 -58.5 -52t-39 -57t-21.5 -71t-6 -92q0 -84 -5 -151.5t-24.5 -123t-57.5 -98.5t-101 -74q63 -33 101 -74.5t57.5 -97t24.5 -123t5 -149.5q0 -53 6 -92 t21.5 -70.5t39 -57.5t58.5 -52v-226q-113 18 -191.5 63.5t-128 115t-71 163t-21.5 205.5q0 63 -4 112.5t-19.5 83.5t-46 53.5t-83.5 27.5z" />
<glyph unicode="|" horiz-adv-x="458" d="M102 -367v1862h254v-1862h-254z" />
<glyph unicode="}" horiz-adv-x="645" d="M49 -141q35 27 58.5 52.5t39 57t21.5 70.5t6 92q0 82 5 150.5t24.5 124t57.5 98.5t101 74q-66 33 -102.5 74.5t-56 97t-24.5 123t-5 149.5q0 53 -6 92t-21.5 71t-39 57.5t-58.5 51.5v226q113 -18 191.5 -63.5t128 -115t71 -163t21.5 -205.5q0 -66 4 -114t19.5 -82t46 -53 t83.5 -28v-237q-53 -8 -83.5 -28.5t-46 -54.5t-19.5 -83t-4 -113q0 -113 -21.5 -206t-71 -162.5t-128 -114.5t-191.5 -64v226z" />
<glyph unicode="~" horiz-adv-x="1105" d="M61 532q0 84 15.5 164t47.5 141.5t84 99.5t126 38q61 0 117.5 -23.5t103.5 -54.5q51 -31 91 -58.5t67 -27.5q33 0 45 49t12 111h274q0 -84 -16 -164t-49 -142.5t-85 -100.5t-122 -38q-63 0 -116.5 21.5t-100.5 50.5q-53 33 -94 62.5t-68 29.5q-33 0 -45 -49t-12 -109 h-275z" />
<glyph unicode="&#xa1;" horiz-adv-x="477" d="M102 0v612l56 521h161l56 -521v-612h-273zM102 1206v289h273v-289h-273z" />
<glyph unicode="&#xa2;" horiz-adv-x="706" d="M41 426q0 78 19.5 153.5t56.5 137t92 102.5t127 53v142h106v-142q78 -14 135.5 -62t94.5 -120l-174 -141q-16 57 -42 81.5t-69 24.5q-90 0 -90 -229t90 -229q41 0 69.5 31.5t41.5 86.5l174 -155q-37 -70 -94.5 -118t-135.5 -62v-142h-106v142q-72 12 -127 53t-92 102.5 t-56.5 137t-19.5 153.5z" />
<glyph unicode="&#xa3;" horiz-adv-x="962" d="M33 170q0 78 48 135t144 57q41 0 79 -15t73 -38q6 45 6 90q0 59 -20.5 120t-49.5 124h-217v115h160q-47 94 -86 189t-39 198q0 82 23.5 150.5t70.5 118.5t117 78t162 28q96 0 161.5 -33t105.5 -86t57.5 -121t17.5 -135h-248q0 25 -3 54.5t-14.5 55t-32 43t-54.5 17.5 q-31 0 -49.5 -15.5t-30 -40t-15.5 -52t-4 -52.5q0 -59 11.5 -110.5t30 -99.5t40 -94t41.5 -93h230v-115h-187q23 -78 23 -162q0 -66 -11.5 -140.5t-40.5 -141.5q45 -29 89 -29q31 0 48 18.5t26.5 46t12.5 61.5t3 64h211q0 -72 -12.5 -140t-43 -122.5t-83 -88.5t-134.5 -34 q-59 0 -107 27t-89 61q-39 -41 -89.5 -64.5t-115.5 -23.5q-98 0 -156.5 54.5t-58.5 140.5zM168 154q0 -25 17.5 -43.5t39.5 -18.5q35 0 62 20.5t47 55.5q-53 43 -98 43q-25 0 -46.5 -15.5t-21.5 -41.5z" />
<glyph unicode="&#xa4;" d="M0 492v512h250v-512h-250zM492 0v250h512v-250h-512zM492 492v512h512v-512h-512zM492 1245v250h512v-250h-512zM1245 492v512h250v-512h-250z" />
<glyph unicode="&#xa5;" horiz-adv-x="964" d="M20 1495h302l161 -510l164 510h297l-319 -838v-71h194v-142h-194v-116h194v-142h-194v-186h-287v186h-195v142h195v116h-195v142h195v76z" />
<glyph unicode="&#xa6;" d="M0 492v512h250v-512h-250zM492 0v250h512v-250h-512zM492 492v512h512v-512h-512zM492 1245v250h512v-250h-512zM1245 492v512h250v-512h-250z" />
<glyph unicode="&#xa7;" horiz-adv-x="1067" d="M61 530q0 127 53.5 212t123.5 139q-49 45 -77 104t-28 143t31 156t87 124t135 82t175 30q94 0 177 -25t165 -80l-131 -225q-53 41 -105.5 57.5t-117.5 16.5q-53 0 -88 -31t-35 -76q0 -31 9 -54.5t33 -43t63.5 -36.5t101.5 -38q92 -31 161.5 -61.5t116.5 -70.5t71 -95 t24 -135q0 -127 -53.5 -213t-123.5 -138q49 -45 77 -104t28 -143t-31 -156t-87 -124t-135 -82t-175 -30q-94 0 -177 25t-165 80l131 225q53 -41 105.5 -57.5t117.5 -16.5q53 0 88 31t35 76q0 31 -9 54.5t-33 43t-63.5 36.5t-101.5 38q-92 31 -161.5 61.5t-116.5 70.5 t-71 95.5t-24 134.5zM348 578q0 -33 11.5 -56.5t39 -43t72.5 -38t113 -41.5q10 -4 17 -6t17 -6q45 41 73 89t28 99q0 33 -11.5 56.5t-39 43t-72.5 38t-113 41.5q-10 4 -17 6t-17 6q-45 -41 -73 -89t-28 -99z" />
<glyph unicode="&#xa8;" horiz-adv-x="819" d="M174 973v266h193v-266h-193zM453 973v266h192v-266h-192z" />
<glyph unicode="&#xa9;" horiz-adv-x="1728" d="M92 748q0 160 60.5 300t166 245.5t246 166t299.5 60.5q160 0 300.5 -60.5t246 -166t165.5 -245.5t60 -300t-60 -300.5t-165.5 -246t-246 -166t-300.5 -60.5t-300 60.5t-245.5 166t-166 246t-60.5 300.5zM217 745q0 -135 51 -251.5t138.5 -204.5t205 -138.5t252.5 -50.5 t253 50.5t205 138.5t138 204.5t51 251.5t-51 253t-138 205t-205 138.5t-253 51.5t-252.5 -51.5t-205 -138.5t-138.5 -204.5t-51 -253.5zM428 768q0 90 33 171t92 142.5t141 98.5t178 37q123 0 201 -38t131 -104l-143 -133q-41 39 -78 55.5t-106 16.5q-59 0 -104.5 -21.5 t-75 -57.5t-45 -80t-15.5 -87q0 -61 20.5 -112.5t53 -88.5t75.5 -56t86 -19q76 0 122 20t89 70l140 -125q-53 -72 -144.5 -120t-210.5 -48q-82 0 -160.5 31.5t-141 93t-100.5 150.5t-38 204z" />
<glyph unicode="&#xaa;" horiz-adv-x="704" d="M76 522v166h528v-166h-528zM76 1022q0 61 30.5 107.5t77.5 78t103.5 47t107.5 15.5q0 43 -8 74.5t-53 31.5t-83 -12t-65 -31l-53 121q37 33 99.5 49.5t132.5 16.5t115.5 -19.5t72.5 -47.5t37 -60.5t10 -59.5v-516h-205v53q-18 -31 -57 -51t-80 -20q-76 0 -129 55t-53 168 zM276 1030q0 -31 15.5 -49t50.5 -18q31 0 53 24v164q-41 0 -80 -26.5t-39 -94.5z" />
<glyph unicode="&#xab;" horiz-adv-x="634" d="M61 301v299l230 213v-264l-133 -98l133 -99v-264zM344 301v299l229 213v-264l-133 -98l133 -99v-264z" />
<glyph unicode="&#xac;" d="M0 492v512h250v-512h-250zM492 0v250h512v-250h-512zM492 492v512h512v-512h-512zM492 1245v250h512v-250h-512zM1245 492v512h250v-512h-250z" />
<glyph unicode="&#xad;" d="M0 492v512h250v-512h-250zM492 0v250h512v-250h-512zM492 492v512h512v-512h-512zM492 1245v250h512v-250h-512zM1245 492v512h250v-512h-250z" />
<glyph unicode="&#xae;" horiz-adv-x="1728" d="M92 748q0 160 60.5 300t166 245.5t246 166t299.5 60.5q160 0 300.5 -60.5t246 -166t165.5 -245.5t60 -300t-60 -300.5t-165.5 -246t-246 -166t-300.5 -60.5t-300 60.5t-245.5 166t-166 246t-60.5 300.5zM217 745q0 -135 51 -251.5t138.5 -204.5t205 -138.5t252.5 -50.5 t253 50.5t205 138.5t138 204.5t51 251.5t-51 253t-138 205t-205 138.5t-253 51.5t-252.5 -51.5t-205 -138.5t-138.5 -204.5t-51 -253.5zM573 317v897h353q61 0 114.5 -20t91 -56t59 -84t21.5 -104q0 -109 -56 -176t-148 -84l249 -373h-235l-244 390v-390h-205zM778 821h107 q53 0 86 32t33 91q0 47 -33 73.5t-82 26.5h-111v-223z" />
<glyph unicode="&#xaf;" horiz-adv-x="819" d="M102 973v135h615v-135h-615z" />
<glyph unicode="&#xb0;" horiz-adv-x="774" d="M41 1174q0 72 26.5 135t73.5 110t110.5 74t135.5 27t135.5 -27t110.5 -74t73.5 -110t26.5 -135t-26.5 -135.5t-73.5 -110.5t-110.5 -74t-135.5 -27t-135.5 27t-110.5 74t-73.5 110.5t-26.5 135.5zM221 1174q0 -68 49 -117t117 -49t117 49t49 117t-49 116.5t-117 48.5 t-117 -49t-49 -116z" />
<glyph unicode="&#xb1;" horiz-adv-x="1382" d="M29 637v215h100v381q0 57 13.5 105t44 83t81.5 54.5t129 19.5q55 0 86 -10v-219q-10 4 -18 4h-19q-39 0 -50 -28t-11 -68v-322h209v381q0 57 13.5 105t44 83t81.5 54.5t129 19.5q55 0 86 -10v-219q-10 4 -18 4h-19q-39 0 -50 -28t-11 -68v-322h100v-215h-100v-637h-256 v637h-209v-637h-256v637h-100zM1055 0v1495h256v-1495h-256z" />
<glyph unicode="&#xb2;" d="M0 492v512h250v-512h-250zM492 0v250h512v-250h-512zM492 492v512h512v-512h-512zM492 1245v250h512v-250h-512zM1245 492v512h250v-512h-250z" />
<glyph unicode="&#xb3;" d="M0 492v512h250v-512h-250zM492 0v250h512v-250h-512zM492 492v512h512v-512h-512zM492 1245v250h512v-250h-512zM1245 492v512h250v-512h-250z" />
<glyph unicode="&#xb4;" horiz-adv-x="819" d="M242 973l157 342h246l-207 -342h-196z" />
<glyph unicode="&#xb5;" d="M0 492v512h250v-512h-250zM492 0v250h512v-250h-512zM492 492v512h512v-512h-512zM492 1245v250h512v-250h-512zM1245 492v512h250v-512h-250z" />
<glyph unicode="&#xb6;" horiz-adv-x="1196" d="M41 987q0 131 41 227.5t106.5 159t145.5 92t160 29.5h600v-1862h-240v1641h-117v-1641h-239v824q-94 0 -177 35.5t-145.5 103.5t-98.5 166t-36 225zM317 987q0 -147 47.5 -225t133.5 -78v590q-86 0 -133.5 -69.5t-47.5 -217.5z" />
<glyph unicode="&#xb7;" horiz-adv-x="436" d="M82 563v289h272v-289h-272z" />
<glyph unicode="&#xb8;" horiz-adv-x="819" d="M186 -301l66 82q35 -23 65.5 -32t65.5 -9q29 0 47.5 10t18.5 43q0 45 -64 45q-16 0 -38.5 -2t-39.5 -8l-43 63l98 138h136l-68 -95q84 4 124 -34t40 -95q0 -84 -62.5 -128t-142.5 -44q-57 0 -109.5 15.5t-93.5 50.5z" />
<glyph unicode="&#xb9;" d="M0 492v512h250v-512h-250zM492 0v250h512v-250h-512zM492 492v512h512v-512h-512zM492 1245v250h512v-250h-512zM1245 492v512h250v-512h-250z" />
<glyph unicode="&#xba;" horiz-adv-x="704" d="M72 522v166h561v-166h-561zM76 1159q0 68 17.5 133.5t53 115.5t87 81t118.5 31q68 0 119 -31t87 -81t53.5 -115.5t17.5 -133.5t-17.5 -133t-53.5 -115.5t-87 -81t-119 -30.5t-119 30.5t-86.5 81t-53 116t-17.5 132.5zM281 1159q0 -184 71 -184q72 0 72 184t-72 184 t-71 -184z" />
<glyph unicode="&#xbb;" horiz-adv-x="634" d="M61 88v264l134 99l-134 98v264l230 -213v-299zM344 88v264l133 99l-133 98v264l229 -213v-299z" />
<glyph unicode="&#xbc;" d="M0 492v512h250v-512h-250zM492 0v250h512v-250h-512zM492 492v512h512v-512h-512zM492 1245v250h512v-250h-512zM1245 492v512h250v-512h-250z" />
<glyph unicode="&#xbd;" d="M0 492v512h250v-512h-250zM492 0v250h512v-250h-512zM492 492v512h512v-512h-512zM492 1245v250h512v-250h-512zM1245 492v512h250v-512h-250z" />
<glyph unicode="&#xbe;" d="M0 492v512h250v-512h-250zM492 0v250h512v-250h-512zM492 492v512h512v-512h-512zM492 1245v250h512v-250h-512zM1245 492v512h250v-512h-250z" />
<glyph unicode="&#xbf;" horiz-adv-x="718" d="M41 309q0 70 14.5 123t36 98t48 88.5t50.5 92.5q33 63 54.5 143t21.5 199v65h232v-82q0 -154 -23.5 -251t-54.5 -164q-20 -43 -41 -79t-37 -70t-26.5 -69.5t-10.5 -78.5q0 -33 19.5 -69t66.5 -36q27 0 46.5 16.5t32.5 43t18.5 56.5t3.5 58l213 -125q-8 -66 -37 -119 t-72 -92t-98.5 -60.5t-118.5 -21.5q-84 0 -147.5 30t-105.5 77t-63.5 107.5t-21.5 119.5zM266 1196v299h232v-299h-232z" />
<glyph unicode="&#xc0;" horiz-adv-x="1046" d="M41 0l381 1495h190l373 -1495h-289l-45 238h-280l-45 -238h-285zM219 1940h246l158 -342h-197zM412 449h198l-84 442q-8 33 -10 59q-2 16 -4 33q-2 -16 -4 -33q-2 -14 -5 -29.5t-5 -29.5z" />
<glyph unicode="&#xc1;" horiz-adv-x="1046" d="M41 0l381 1495h190l373 -1495h-289l-45 238h-280l-45 -238h-285zM408 1598l157 342h246l-207 -342h-196zM412 449h198l-84 442q-8 33 -10 59q-2 16 -4 33q-2 -16 -4 -33q-2 -14 -5 -29.5t-5 -29.5z" />
<glyph unicode="&#xc2;" horiz-adv-x="1046" d="M41 0l381 1495h190l373 -1495h-289l-45 238h-280l-45 -238h-285zM256 1598l169 301h181l170 -301h-191l-71 153l-72 -153h-186zM412 449h198l-84 442q-8 33 -10 59q-2 16 -4 33q-2 -16 -4 -33q-2 -14 -5 -29.5t-5 -29.5z" />
<glyph unicode="&#xc3;" horiz-adv-x="1046" d="M41 0l381 1495h190l373 -1495h-289l-45 238h-280l-45 -238h-285zM219 1598q2 51 11 96t29.5 78t53.5 51.5t86 18.5q35 0 62.5 -13.5t50.5 -29.5t42 -31t36 -15q53 0 63 84h139q-4 -51 -13 -96t-28.5 -77.5t-53.5 -51t-85 -18.5q-35 0 -62.5 13t-50.5 30q-23 16 -42 30.5 t-35 14.5q-53 0 -64 -84h-139zM412 449h198l-84 442q-8 33 -10 59q-2 16 -4 33q-2 -16 -4 -33q-2 -14 -5 -29.5t-5 -29.5z" />
<glyph unicode="&#xc4;" horiz-adv-x="1046" d="M41 0l381 1495h190l373 -1495h-289l-45 238h-280l-45 -238h-285zM76 1229v266h203v-266h-203zM412 449h198l-84 442q-8 33 -10 59q-2 16 -4 33q-2 -16 -4 -33q-2 -14 -5 -29.5t-5 -29.5zM756 1229v266h202v-266h-202z" />
<glyph unicode="&#xc5;" horiz-adv-x="1046" d="M41 0l358 1405q-47 31 -77.5 81t-30.5 109q0 45 18.5 86t49 72t71.5 49.5t86 18.5t86 -18.5t72 -49.5t49 -72t18 -86q0 -59 -29.5 -109t-76.5 -81l350 -1405h-289l-45 238h-280l-45 -238h-285zM412 449h198l-84 442q-8 33 -10 59q-2 16 -4 33q-2 -16 -4 -33 q-2 -14 -5 -29.5t-5 -29.5zM422 1595q0 -39 27.5 -66.5t66.5 -27.5t66.5 27.5t27.5 66.5t-27.5 67t-66.5 28t-66.5 -28t-27.5 -67z" />
<glyph unicode="&#xc6;" horiz-adv-x="1474" d="M20 0l564 1495h807v-244h-385v-374h358v-244h-358v-389h391v-244h-658v336h-309l-108 -336h-302zM504 547h235v723z" />
<glyph unicode="&#xc7;" horiz-adv-x="907" d="M61 748q0 133 31 270t93.5 248.5t158.5 182.5t229 71q96 0 160 -26t117 -75l-123 -252q-27 53 -61.5 77t-92.5 24q-59 0 -100 -50.5t-66.5 -127t-37 -169t-11.5 -173.5q0 -82 11.5 -174.5t37 -170t66.5 -129t100 -51.5q45 0 87 26.5t65 69.5l121 -235q-41 -47 -109.5 -77 t-154.5 -32l-29 -41q84 4 124 -33.5t40 -95.5q0 -84 -62.5 -128t-142.5 -44q-57 0 -109.5 15.5t-93.5 50.5l66 82q35 -23 65.5 -32t65.5 -9q29 0 47 10t18 43q0 45 -63 45q-16 0 -39 -2t-39 -8l-43 63l72 101q-102 31 -177 107.5t-124 181t-73 226.5t-24 241z" />
<glyph unicode="&#xc8;" horiz-adv-x="858" d="M102 0v1495h652v-244h-365v-374h338v-244h-338v-389h371v-244h-658zM151 1940h246l158 -342h-197z" />
<glyph unicode="&#xc9;" horiz-adv-x="858" d="M102 0v1495h652v-244h-365v-374h338v-244h-338v-389h371v-244h-658zM283 1598l157 342h246l-207 -342h-196z" />
<glyph unicode="&#xca;" horiz-adv-x="858" d="M102 0v1495h652v-244h-365v-374h338v-244h-338v-389h371v-244h-658zM164 1598l169 301h181l170 -301h-191l-71 153l-72 -153h-186z" />
<glyph unicode="&#xcb;" horiz-adv-x="858" d="M102 0v1495h652v-244h-365v-374h338v-244h-338v-389h371v-244h-658zM188 1598v266h193v-266h-193zM467 1598v266h192v-266h-192z" />
<glyph unicode="&#xcc;" horiz-adv-x="491" d="M-45 1940h246l158 -342h-197zM102 0v1495h287v-1495h-287z" />
<glyph unicode="&#xcd;" horiz-adv-x="491" d="M102 0v1495h287v-1495h-287zM144 1598l157 342h246l-207 -342h-196z" />
<glyph unicode="&#xce;" horiz-adv-x="491" d="M-12 1598l169 301h181l170 -301h-191l-71 153l-72 -153h-186zM102 0v1495h287v-1495h-287z" />
<glyph unicode="&#xcf;" horiz-adv-x="491" d="M12 1598v266h193v-266h-193zM102 0v1495h287v-1495h-287zM291 1598v266h192v-266h-192z" />
<glyph unicode="&#xd0;" horiz-adv-x="1030" d="M51 606v242h82v647h322q131 0 228 -66.5t160.5 -173t94.5 -240.5t31 -267t-31 -267.5t-94.5 -241t-160.5 -173t-228 -66.5h-322v606h-82zM414 252h41q66 0 107.5 47t66 118.5t34 160t9.5 170.5t-9.5 170t-34 159.5t-66.5 118.5t-107 47h-41v-395h118v-242h-118v-354z" />
<glyph unicode="&#xd1;" horiz-adv-x="1056" d="M102 0v1495h226l317 -741q4 -8 8 -20.5t9 -24.5q6 -14 12 -31q-2 16 -4 31q-2 12 -2 26.5v24.5v735h286v-1495h-235l-301 686l-33 82q0 -14 2 -29q0 -12 1 -27.5t1 -29.5v-682h-287zM238 1598q2 51 11 96t29.5 78t53.5 51.5t86 18.5q35 0 62.5 -13.5t50.5 -29.5t42 -31 t36 -15q53 0 63 84h139q-4 -51 -13 -96t-28.5 -77.5t-53.5 -51t-85 -18.5q-35 0 -62.5 13t-50.5 30q-23 16 -42 30.5t-35 14.5q-53 0 -64 -84h-139z" />
<glyph unicode="&#xd2;" horiz-adv-x="1107" d="M61 748q0 133 28 270t86 248.5t151.5 182.5t226.5 71q131 0 225 -71t153.5 -182.5t87.5 -248.5t28 -270t-28 -270.5t-87.5 -249t-153.5 -182.5t-225 -71q-133 0 -226.5 71t-151.5 182.5t-86 248.5t-28 271zM260 1940h246l158 -342h-197zM358 748q0 -82 8.5 -174.5 t30 -169t59.5 -127t97 -50.5t97 50.5t60.5 127t31 169t8.5 174.5t-8.5 174t-31 168.5t-60.5 127t-97 50.5t-97 -50.5t-59.5 -127t-30 -169t-8.5 -173.5z" />
<glyph unicode="&#xd3;" horiz-adv-x="1107" d="M61 748q0 133 28 270t86 248.5t151.5 182.5t226.5 71q131 0 225 -71t153.5 -182.5t87.5 -248.5t28 -270t-28 -270.5t-87.5 -249t-153.5 -182.5t-225 -71q-133 0 -226.5 71t-151.5 182.5t-86 248.5t-28 271zM358 748q0 -82 8.5 -174.5t30 -169t59.5 -127t97 -50.5t97 50.5 t60.5 127t31 169t8.5 174.5t-8.5 174t-31 168.5t-60.5 127t-97 50.5t-97 -50.5t-59.5 -127t-30 -169t-8.5 -173.5zM428 1598l157 342h246l-207 -342h-196z" />
<glyph unicode="&#xd4;" horiz-adv-x="1107" d="M61 748q0 133 28 270t86 248.5t151.5 182.5t226.5 71q131 0 225 -71t153.5 -182.5t87.5 -248.5t28 -270t-28 -270.5t-87.5 -249t-153.5 -182.5t-225 -71q-133 0 -226.5 71t-151.5 182.5t-86 248.5t-28 271zM285 1598l169 301h181l170 -301h-191l-71 153l-72 -153h-186z M358 748q0 -82 8.5 -174.5t30 -169t59.5 -127t97 -50.5t97 50.5t60.5 127t31 169t8.5 174.5t-8.5 174t-31 168.5t-60.5 127t-97 50.5t-97 -50.5t-59.5 -127t-30 -169t-8.5 -173.5z" />
<glyph unicode="&#xd5;" horiz-adv-x="1107" d="M61 748q0 133 28 270t86 248.5t151.5 182.5t226.5 71q131 0 225 -71t153.5 -182.5t87.5 -248.5t28 -270t-28 -270.5t-87.5 -249t-153.5 -182.5t-225 -71q-133 0 -226.5 71t-151.5 182.5t-86 248.5t-28 271zM262 1598q2 51 11 96t29.5 78t53.5 51.5t86 18.5 q35 0 62.5 -13.5t50.5 -29.5t42 -31t36 -15q53 0 63 84h139q-4 -51 -13 -96t-28.5 -77.5t-53.5 -51t-85 -18.5q-35 0 -62.5 13t-50.5 30q-23 16 -42 30.5t-35 14.5q-53 0 -64 -84h-139zM358 748q0 -82 8.5 -174.5t30 -169t59.5 -127t97 -50.5t97 50.5t60.5 127t31 169 t8.5 174.5t-8.5 174t-31 168.5t-60.5 127t-97 50.5t-97 -50.5t-59.5 -127t-30 -169t-8.5 -173.5z" />
<glyph unicode="&#xd6;" horiz-adv-x="1107" d="M20 1229v266h213v-137q59 74 137.5 118t182.5 44t183 -44t138 -120v139h213v-266h-135q49 -109 72 -234t23 -247q0 -133 -28 -270.5t-87.5 -249t-153.5 -182.5t-225 -71q-133 0 -226.5 71t-151.5 182.5t-86 248.5t-28 271q0 123 22.5 247.5t72.5 233.5h-136zM358 748 q0 -82 8.5 -174.5t30 -169t59.5 -127t97 -50.5t97 50.5t60.5 127t31 169t8.5 174.5t-8.5 174t-31 168.5t-60.5 127t-97 50.5t-97 -50.5t-59.5 -127t-30 -169t-8.5 -173.5z" />
<glyph unicode="&#xd7;" d="M0 492v512h250v-512h-250zM492 0v250h512v-250h-512zM492 492v512h512v-512h-512zM492 1245v250h512v-250h-512zM1245 492v512h250v-512h-250z" />
<glyph unicode="&#xd8;" horiz-adv-x="1107" d="M43 70l119 184q-53 111 -77 239t-24 255q0 133 28 270t86 248.5t151.5 182.5t226.5 71q104 0 182 -43t135 -117l91 139l104 -69l-121 -189q53 -109 78 -238t25 -255q0 -133 -28 -270.5t-87.5 -249t-153.5 -182.5t-225 -71q-104 0 -182 44t-138 118l-90 -141zM358 748 q0 -41 2 -85.5t7 -89.5l340 529q-23 72 -60 119t-94 47q-59 0 -97 -50.5t-59.5 -127t-30 -169t-8.5 -173.5zM399 395q23 -74 60 -121t94 -47q59 0 97 50.5t60.5 127t31 169t8.5 174.5q0 41 -2.5 86t-6.5 92z" />
<glyph unicode="&#xd9;" horiz-adv-x="1011" d="M92 479v1016h287v-1016q0 -133 28.5 -189.5t98.5 -56.5t98.5 56.5t28.5 189.5v1016h287v-1016q0 -106 -25 -198.5t-76 -160t-129 -106.5t-184 -39t-184 39t-129.5 106.5t-76 160t-24.5 198.5zM205 1940h246l158 -342h-197z" />
<glyph unicode="&#xda;" horiz-adv-x="1011" d="M92 479v1016h287v-1016q0 -133 28.5 -189.5t98.5 -56.5t98.5 56.5t28.5 189.5v1016h287v-1016q0 -106 -25 -198.5t-76 -160t-129 -106.5t-184 -39t-184 39t-129.5 106.5t-76 160t-24.5 198.5zM410 1598l157 342h246l-207 -342h-196z" />
<glyph unicode="&#xdb;" horiz-adv-x="1011" d="M92 479v1016h287v-1016q0 -133 28.5 -189.5t98.5 -56.5t98.5 56.5t28.5 189.5v1016h287v-1016q0 -106 -25 -198.5t-76 -160t-129 -106.5t-184 -39t-184 39t-129.5 106.5t-76 160t-24.5 198.5zM246 1598l169 301h181l170 -301h-191l-71 153l-72 -153h-186z" />
<glyph unicode="&#xdc;" horiz-adv-x="1011" d="M92 479v744h287v-744q0 -133 28.5 -192.5t98.5 -59.5t98.5 59.5t28.5 192.5v744h287v-744q0 -106 -25 -198.5t-76 -160t-129 -106.5t-184 -39t-184 39t-129.5 106.5t-76 160t-24.5 198.5zM92 1288v207h287v-207h-287zM633 1288v207h287v-207h-287z" />
<glyph unicode="&#xdd;" horiz-adv-x="964" d="M20 1495h302l141 -444q4 -12 7 -26.5t7 -29.5q4 -16 6 -30q4 14 9 30q4 14 7 29.5t7 28.5l141 442h297l-319 -838v-657h-287v662zM371 1598l157 342h246l-207 -342h-196z" />
<glyph unicode="&#xde;" horiz-adv-x="886" d="M102 0v1495h287v-244q80 0 162 -23.5t147.5 -78.5t106.5 -144.5t41 -220.5q0 -127 -36 -219t-98.5 -151.5t-145.5 -89t-177 -29.5v-295h-287zM389 543q86 0 123 64t37 177t-37 169.5t-123 56.5v-467z" />
<glyph unicode="&#xdf;" horiz-adv-x="839" d="M72 0v1130q0 184 87 287t257 103q84 0 146.5 -29t103.5 -77t60 -112.5t19 -136.5q0 -111 -28.5 -178t-83.5 -123q35 -35 63.5 -77t49 -95t31.5 -118.5t11 -147.5q0 -203 -90 -314.5t-305 -111.5v221q23 0 47.5 6t45 27.5t33.5 62.5t13 109q0 156 -34.5 239t-104.5 126 v143q59 29 77.5 79t18.5 142q0 82 -19 112.5t-60 30.5q-82 0 -82 -145v-1153h-256z" />
<glyph unicode="&#xe0;" horiz-adv-x="755" d="M35 256q0 76 38 134.5t96 97t129 58t134 19.5q0 27 -1 51.5t-8 43t-22.5 28.5t-44.5 10q-55 0 -103 -15t-81 -38l-68 150q47 41 126 61.5t165 20.5q88 0 144.5 -24t89.5 -59.5t46 -75.5t13 -73v-645h-256v66q-23 -39 -72 -65t-98 -26q-94 0 -160.5 70t-66.5 211z M110 1315h246l158 -342h-197zM285 266q0 -39 20.5 -62.5t61.5 -23.5t65 31v205q-25 0 -51.5 -8.5t-48 -25.5t-34.5 -46t-13 -70z" />
<glyph unicode="&#xe1;" horiz-adv-x="755" d="M35 256q0 76 38 134.5t96 97t129 58t134 19.5q0 27 -1 51.5t-8 43t-22.5 28.5t-44.5 10q-55 0 -103 -15t-81 -38l-68 150q47 41 126 61.5t165 20.5q88 0 144.5 -24t89.5 -59.5t46 -75.5t13 -73v-645h-256v66q-23 -39 -72 -65t-98 -26q-94 0 -160.5 70t-66.5 211zM281 973 l157 342h246l-207 -342h-196zM285 266q0 -39 20.5 -62.5t61.5 -23.5t65 31v205q-25 0 -51.5 -8.5t-48 -25.5t-34.5 -46t-13 -70z" />
<glyph unicode="&#xe2;" horiz-adv-x="755" d="M35 256q0 76 38 134.5t96 97t129 58t134 19.5q0 27 -1 51.5t-8 43t-22.5 28.5t-44.5 10q-55 0 -103 -15t-81 -38l-68 150q47 41 126 61.5t165 20.5q88 0 144.5 -24t89.5 -59.5t46 -75.5t13 -73v-645h-256v66q-23 -39 -72 -65t-98 -26q-94 0 -160.5 70t-66.5 211zM130 973 l169 301h181l170 -301h-191l-71 153l-72 -153h-186zM285 266q0 -39 20.5 -62.5t61.5 -23.5t65 31v205q-25 0 -51.5 -8.5t-48 -25.5t-34.5 -46t-13 -70z" />
<glyph unicode="&#xe3;" horiz-adv-x="755" d="M35 256q0 76 38 134.5t96 97t129 58t134 19.5q0 27 -1 51.5t-8 43t-22.5 28.5t-44.5 10q-55 0 -103 -15t-81 -38l-68 150q47 41 126 61.5t165 20.5q88 0 144.5 -24t89.5 -59.5t46 -75.5t13 -73v-645h-256v66q-23 -39 -72 -65t-98 -26q-94 0 -160.5 70t-66.5 211zM113 973 q2 51 11 96t29.5 78t53.5 51.5t86 18.5q35 0 62.5 -13.5t50.5 -29.5t42 -31t36 -15q53 0 63 84h139q-4 -51 -13 -96t-28.5 -77.5t-53.5 -51t-85 -18.5q-35 0 -62.5 13t-50.5 30q-23 16 -42 30.5t-35 14.5q-53 0 -64 -84h-139zM285 266q0 -39 20.5 -62.5t61.5 -23.5t65 31 v205q-25 0 -51.5 -8.5t-48 -25.5t-34.5 -46t-13 -70z" />
<glyph unicode="&#xe4;" horiz-adv-x="755" d="M35 256q0 76 38 134.5t96 97t129 58t134 19.5q0 27 -1 51.5t-8 43t-22.5 28.5t-44.5 10q-55 0 -103 -15t-81 -38l-68 150q47 41 126 61.5t165 20.5q88 0 144.5 -24t89.5 -59.5t46 -75.5t13 -73v-645h-256v66q-23 -39 -72 -65t-98 -26q-94 0 -160.5 70t-66.5 211zM160 973 v266h193v-266h-193zM285 266q0 -39 20.5 -62.5t61.5 -23.5t65 31v205q-25 0 -51.5 -8.5t-48 -25.5t-34.5 -46t-13 -70zM439 973v266h192v-266h-192z" />
<glyph unicode="&#xe5;" horiz-adv-x="755" d="M35 256q0 76 38 134.5t96 97t129 58t134 19.5q0 27 -1 51.5t-8 43t-22.5 28.5t-44.5 10q-55 0 -103 -15t-81 -38l-68 150q47 41 126 61.5t165 20.5q88 0 144.5 -24t89.5 -59.5t46 -75.5t13 -73v-645h-256v66q-23 -39 -72 -65t-98 -26q-94 0 -160.5 70t-66.5 211z M172 1180q0 45 18.5 86t49.5 71.5t72 49t86 18.5t86 -18.5t71.5 -49t49 -71.5t18.5 -86t-18.5 -86t-49 -72t-71.5 -49.5t-86 -18.5t-86 18.5t-72 49.5t-49.5 72t-18.5 86zM285 266q0 -39 20.5 -62.5t61.5 -23.5t65 31v205q-25 0 -51.5 -8.5t-48 -25.5t-34.5 -46t-13 -70z M303 1180q0 -39 28 -67t67 -28t66.5 28t27.5 67t-27.5 66.5t-66.5 27.5t-67 -27.5t-28 -66.5z" />
<glyph unicode="&#xe6;" horiz-adv-x="1124" d="M35 256q0 76 38 134.5t96 97t129 58t134 19.5q0 27 -1 51.5t-8 43t-22.5 28.5t-44.5 10q-55 0 -103 -15t-81 -38l-68 150q49 39 126 60.5t145 21.5q70 0 128 -29t77 -68q23 35 71.5 66t108.5 31q90 0 150.5 -40t96 -105.5t51 -147.5t15.5 -168v-26.5t-2 -27.5h-399 q4 -96 36.5 -137t73.5 -41q47 0 80 27t58 68l145 -132q-49 -82 -120 -127t-175 -45q-84 0 -143.5 45.5t-89.5 104.5q-33 -55 -92.5 -102.5t-161.5 -47.5q-104 0 -176 70t-72 211zM285 266q0 -39 20.5 -62.5t61.5 -23.5q20 0 42.5 20.5t22.5 43.5v172q-25 0 -51.5 -8.5 t-48 -25.5t-34.5 -46t-13 -70zM672 512h174q0 33 -4 63.5t-14.5 55t-27 40t-40.5 15.5q-25 0 -41.5 -15.5t-26.5 -40t-14 -55t-6 -63.5z" />
<glyph unicode="&#xe7;" horiz-adv-x="706" d="M41 426q0 86 22.5 167t66.5 143.5t108.5 101.5t148.5 39q100 0 171 -51.5t114 -135.5l-174 -141q-16 57 -42 81.5t-69 24.5q-90 0 -90 -229t90 -229q41 0 69.5 31.5t41.5 86.5l174 -155q-37 -70 -94.5 -118t-135.5 -62l-32 -46q84 4 123.5 -33.5t39.5 -95.5 q0 -84 -62 -128t-142 -44q-57 0 -109.5 15.5t-93.5 50.5l65 82q35 -23 66 -32t65 -9q29 0 47.5 10t18.5 43q0 45 -63 45q-16 0 -39 -2t-39 -8l-43 63l67 95q-66 16 -117 58t-84.5 102.5t-51 132t-17.5 147.5z" />
<glyph unicode="&#xe8;" horiz-adv-x="741" d="M41 426q0 86 20.5 167t62.5 143.5t105.5 101.5t147.5 39q90 0 150.5 -40t96 -105.5t51 -147.5t15.5 -168v-26.5t-2 -27.5h-399q4 -96 36.5 -137t73.5 -41q47 0 80 27t58 68l145 -132q-49 -82 -119.5 -127t-175.5 -45q-84 0 -148.5 36t-108.5 97.5t-66.5 143.5t-22.5 174z M96 1315h246l158 -342h-197zM289 512h174q0 33 -4 63.5t-14.5 55t-27 40t-40.5 15.5q-25 0 -41.5 -15.5t-26.5 -40t-14 -55t-6 -63.5z" />
<glyph unicode="&#xe9;" horiz-adv-x="741" d="M41 426q0 86 20.5 167t62.5 143.5t105.5 101.5t147.5 39q90 0 150.5 -40t96 -105.5t51 -147.5t15.5 -168v-26.5t-2 -27.5h-399q4 -96 36.5 -137t73.5 -41q47 0 80 27t58 68l145 -132q-49 -82 -119.5 -127t-175.5 -45q-84 0 -148.5 36t-108.5 97.5t-66.5 143.5t-22.5 174z M254 973l157 342h246l-207 -342h-196zM289 512h174q0 33 -4 63.5t-14.5 55t-27 40t-40.5 15.5q-25 0 -41.5 -15.5t-26.5 -40t-14 -55t-6 -63.5z" />
<glyph unicode="&#xea;" horiz-adv-x="741" d="M41 426q0 86 20.5 167t62.5 143.5t105.5 101.5t147.5 39q90 0 150.5 -40t96 -105.5t51 -147.5t15.5 -168v-26.5t-2 -27.5h-399q4 -96 36.5 -137t73.5 -41q47 0 80 27t58 68l145 -132q-49 -82 -119.5 -127t-175.5 -45q-84 0 -148.5 36t-108.5 97.5t-66.5 143.5t-22.5 174z M119 973l169 301h181l170 -301h-191l-71 153l-72 -153h-186zM289 512h174q0 33 -4 63.5t-14.5 55t-27 40t-40.5 15.5q-25 0 -41.5 -15.5t-26.5 -40t-14 -55t-6 -63.5z" />
<glyph unicode="&#xeb;" horiz-adv-x="741" d="M41 426q0 86 20.5 167t62.5 143.5t105.5 101.5t147.5 39q90 0 150.5 -40t96 -105.5t51 -147.5t15.5 -168v-26.5t-2 -27.5h-399q4 -96 36.5 -137t73.5 -41q47 0 80 27t58 68l145 -132q-49 -82 -119.5 -127t-175.5 -45q-84 0 -148.5 36t-108.5 97.5t-66.5 143.5t-22.5 174z M139 973v266h193v-266h-193zM289 512h174q0 33 -4 63.5t-14.5 55t-27 40t-40.5 15.5q-25 0 -41.5 -15.5t-26.5 -40t-14 -55t-6 -63.5zM418 973v266h192v-266h-192z" />
<glyph unicode="&#xec;" horiz-adv-x="327" d="M-90 1315h246l158 -342h-197z" />
<glyph unicode="&#xed;" horiz-adv-x="327" d="M95 973l157 342h246l-207 -342h-196z" />
<glyph unicode="&#xee;" horiz-adv-x="327" d="M-59 973l169 301h181l170 -301h-191l-71 153l-72 -153h-186z" />
<glyph unicode="&#xef;" horiz-adv-x="327" d="M-35 973v266h193v-266h-193zM244 973v266h192v-266h-192z" />
<glyph unicode="&#xf0;" horiz-adv-x="784" d="M41 426q0 86 21.5 167t61.5 143.5t93 101.5t119 39q57 0 90 -20.5t61 -59.5q0 156 -81 323l-175 -69l-84 166l158 63q-27 35 -55.5 64.5t-63.5 54.5l146 135q106 -88 178 -172l166 65l82 -165l-142 -58q33 -66 55.5 -139.5t37 -158.5t19.5 -184t5 -216q0 -254 -88 -392.5 t-258 -138.5q-84 0 -148.5 39t-108.5 101.5t-66.5 143.5t-22.5 167zM297 426q0 -229 90 -229t90 229t-90 229t-90 -229z" />
<glyph unicode="&#xf1;" horiz-adv-x="772" d="M72 0v852h256v-88q35 53 84 83t114 30q51 0 87 -21.5t57.5 -53.5t31 -71t9.5 -76v-655h-256v528q0 35 -11.5 69t-48.5 34q-39 0 -53 -34t-14 -69v-528h-256zM111 973q2 51 11 96t29.5 78t53.5 51.5t86 18.5q35 0 62.5 -13.5t50.5 -29.5t42 -31t36 -15q53 0 63 84h139 q-4 -51 -13 -96t-28.5 -77.5t-53.5 -51t-85 -18.5q-35 0 -62.5 13t-50.5 30q-23 16 -42 30.5t-35 14.5q-53 0 -64 -84h-139z" />
<glyph unicode="&#xf2;" horiz-adv-x="774" d="M41 426q0 86 22.5 167t66.5 143.5t108.5 101.5t148.5 39t148.5 -39t108.5 -101.5t66.5 -143.5t22.5 -167t-22.5 -167t-66.5 -143.5t-108.5 -101.5t-148.5 -39t-148.5 39t-108.5 101.5t-66.5 143.5t-22.5 167zM100 1315h246l158 -342h-197zM297 426q0 -229 90 -229t90 229 t-90 229t-90 -229z" />
<glyph unicode="&#xf3;" horiz-adv-x="774" d="M41 426q0 86 22.5 167t66.5 143.5t108.5 101.5t148.5 39t148.5 -39t108.5 -101.5t66.5 -143.5t22.5 -167t-22.5 -167t-66.5 -143.5t-108.5 -101.5t-148.5 -39t-148.5 39t-108.5 101.5t-66.5 143.5t-22.5 167zM262 973l157 342h246l-207 -342h-196zM297 426 q0 -229 90 -229t90 229t-90 229t-90 -229z" />
<glyph unicode="&#xf4;" horiz-adv-x="774" d="M41 426q0 86 22.5 167t66.5 143.5t108.5 101.5t148.5 39t148.5 -39t108.5 -101.5t66.5 -143.5t22.5 -167t-22.5 -167t-66.5 -143.5t-108.5 -101.5t-148.5 -39t-148.5 39t-108.5 101.5t-66.5 143.5t-22.5 167zM125 973l169 301h181l170 -301h-191l-71 153l-72 -153h-186z M297 426q0 -229 90 -229t90 229t-90 229t-90 -229z" />
<glyph unicode="&#xf5;" horiz-adv-x="774" d="M41 426q0 86 22.5 167t66.5 143.5t108.5 101.5t148.5 39t148.5 -39t108.5 -101.5t66.5 -143.5t22.5 -167t-22.5 -167t-66.5 -143.5t-108.5 -101.5t-148.5 -39t-148.5 39t-108.5 101.5t-66.5 143.5t-22.5 167zM107 969q2 51 11 96t29.5 78t53.5 51.5t86 18.5 q35 0 62.5 -13.5t50.5 -29.5t42 -31t36 -15q53 0 63 84h139q-4 -51 -13 -96t-28.5 -77.5t-53.5 -51t-85 -18.5q-35 0 -62.5 13t-50.5 30q-23 16 -42 30.5t-35 14.5q-53 0 -64 -84h-139zM297 426q0 -229 90 -229t90 229t-90 229t-90 -229z" />
<glyph unicode="&#xf6;" horiz-adv-x="774" d="M41 426q0 86 22.5 167t66.5 143.5t108.5 101.5t148.5 39t148.5 -39t108.5 -101.5t66.5 -143.5t22.5 -167t-22.5 -167t-66.5 -143.5t-108.5 -101.5t-148.5 -39t-148.5 39t-108.5 101.5t-66.5 143.5t-22.5 167zM154 973v266h193v-266h-193zM297 426q0 -229 90 -229t90 229 t-90 229t-90 -229zM433 973v266h192v-266h-192z" />
<glyph unicode="&#xf7;" d="M0 492v512h250v-512h-250zM492 0v250h512v-250h-512zM492 492v512h512v-512h-512zM492 1245v250h512v-250h-512zM1245 492v512h250v-512h-250z" />
<glyph unicode="&#xf8;" horiz-adv-x="774" d="M20 51l84 103q-63 123 -63 272q0 86 22.5 167t66.5 143.5t108.5 101.5t148.5 39q72 0 129 -29t100 -76l74 90l70 -55l-92 -111q33 -59 49 -128.5t16 -141.5q0 -86 -22.5 -167t-66.5 -143.5t-108.5 -101.5t-148.5 -39q-72 0 -129 28t-100 75l-72 -86zM279 395.5 q0 -14.5 2 -28.5l192 231q-27 70 -86 70q-109 0 -108 -242v-30.5zM301 252q27 -68 86 -68q109 0 109 242v30.5t-2 28.5z" />
<glyph unicode="&#xf9;" horiz-adv-x="772" d="M61 197v655h256v-528q0 -35 11.5 -69t48.5 -34q39 0 53 34t14 69v528h256v-852h-256v88q-35 -53 -84 -83t-114 -30q-53 0 -88 21.5t-56.5 53.5t-31 71t-9.5 76zM100 1315h246l158 -342h-197z" />
<glyph unicode="&#xfa;" horiz-adv-x="772" d="M61 197v655h256v-528q0 -35 11.5 -69t48.5 -34q39 0 53 34t14 69v528h256v-852h-256v88q-35 -53 -84 -83t-114 -30q-53 0 -88 21.5t-56.5 53.5t-31 71t-9.5 76zM262 973l157 342h246l-207 -342h-196z" />
<glyph unicode="&#xfb;" horiz-adv-x="772" d="M61 197v655h256v-528q0 -35 11.5 -69t48.5 -34q39 0 53 34t14 69v528h256v-852h-256v88q-35 -53 -84 -83t-114 -30q-53 0 -88 21.5t-56.5 53.5t-31 71t-9.5 76zM123 973l169 301h181l170 -301h-191l-71 153l-72 -153h-186z" />
<glyph unicode="&#xfc;" horiz-adv-x="772" d="M61 197v655h256v-528q0 -35 11.5 -69t48.5 -34q39 0 53 34t14 69v528h256v-852h-256v88q-35 -53 -84 -83t-114 -30q-53 0 -88 21.5t-56.5 53.5t-31 71t-9.5 76zM147 973v266h193v-266h-193zM426 973v266h192v-266h-192z" />
<glyph unicode="&#xfd;" horiz-adv-x="765" d="M20 852h250l99 -410q4 -27 10 -55q4 -16 6 -35q2 18 6 35q4 14 5 29.5t5 27.5l95 408h249l-292 -1012q-10 -37 -27.5 -73.5t-45.5 -66.5t-71 -48.5t-104 -18.5q-55 0 -86 11v219q10 -4 18 -4h19q39 0 65.5 17.5t36.5 60.5l16 63zM281 973l157 342h246l-207 -342h-196z " />
<glyph unicode="&#xfe;" horiz-adv-x="772" d="M72 -367v1862h256v-709q23 39 56.5 65t82.5 26q68 0 118 -39t81.5 -101.5t48 -143.5t16.5 -167t-16.5 -167t-48 -143.5t-81.5 -101.5t-118 -39q-49 0 -83 26t-56 65v-433h-256zM303 426q0 -229 90 -229t90 229t-90 229t-90 -229z" />
<glyph unicode="&#xff;" horiz-adv-x="765" d="M20 852h250l99 -410q4 -27 10 -55q4 -16 6 -35q2 18 6 35q4 14 5 29.5t5 27.5l95 408h249l-292 -1012q-10 -37 -27.5 -73.5t-45.5 -66.5t-71 -48.5t-104 -18.5q-55 0 -86 11v219q10 -4 18 -4h19q39 0 65.5 17.5t36.5 60.5l16 63zM149 973v266h193v-266h-193zM428 973v266 h192v-266h-192z" />
<glyph unicode="&#x152;" horiz-adv-x="1484" d="M61 748q0 133 29 270t87.5 248.5t146.5 182.5t208 71q88 0 157 -40t102 -91v106h610v-244h-365v-374h338v-244h-338v-389h371v-244h-616v106q-33 -51 -105 -91t-154 -40q-121 0 -208.5 71t-146 182.5t-87.5 248.5t-29 271zM358 748q0 -82 8.5 -174.5t30 -169t59.5 -127 t97 -50.5t97 50.5t60.5 127t31 169t8.5 174.5t-8.5 174t-31 168.5t-60.5 127t-97 50.5t-97 -50.5t-59.5 -127t-30 -169t-8.5 -173.5z" />
<glyph unicode="&#x153;" horiz-adv-x="1177" d="M41 426q0 86 22.5 167t66.5 143.5t108.5 101.5t148.5 39q74 0 130 -33t85 -80q33 47 85 80t126 33q90 0 150.5 -40t96.5 -105.5t51 -147.5t15 -168v-26.5t-2 -27.5h-399q4 -96 37 -137t74 -41q47 0 79.5 27t57.5 68l145 -132q-49 -82 -119.5 -127t-175.5 -45 q-82 0 -135 34t-86 81q-29 -47 -85 -81t-130 -34q-84 0 -148.5 39t-108.5 101.5t-66.5 143.5t-22.5 167zM297 426q0 -229 90 -229t90 229t-90 229t-90 -229zM725 512h174q0 33 -4 63.5t-14.5 55t-26.5 40t-41 15.5t-41 -15.5t-26.5 -40t-14.5 -55t-6 -63.5z" />
<glyph unicode="&#x160;" horiz-adv-x="901" d="M53 211l213 172q35 -78 80 -117t84 -39q100 0 100 129q0 43 -22.5 87t-59 91.5t-81.5 97.5t-91 105q-74 92 -131 193.5t-57 222.5q0 72 24.5 138.5t72.5 116.5t121 81t169 31q125 0 206 -61.5t134 -151.5l-197 -164q-31 53 -63.5 89t-79.5 36q-53 0 -74.5 -29t-21.5 -76 q0 -39 16.5 -76.5t43 -76.5t62.5 -79t72 -83q45 -51 90.5 -105.5t82 -114t59 -123.5t22.5 -138q0 -88 -30.5 -160t-84 -123t-127 -80t-159.5 -29q-123 0 -219 67t-154 169zM190 1899h191l72 -154l71 154h187l-170 -301h-181z" />
<glyph unicode="&#x161;" horiz-adv-x="626" d="M39 74l115 159q68 -68 153 -67q27 0 38 16.5t11 34.5q0 29 -44 62.5t-97 78.5q-59 49 -107.5 115t-48.5 156q0 49 17.5 94t52.5 79t86 54.5t119 20.5q72 0 134 -29t103 -74l-112 -158q-23 29 -51.5 49.5t-63.5 20.5q-25 0 -37 -12t-12 -29q0 -16 13.5 -33.5t36 -37 t51 -41t57.5 -48.5q53 -47 94 -110.5t41 -151.5q0 -113 -73 -180.5t-208 -67.5q-86 0 -150.5 28t-117.5 71zM61 1274h191l72 -154l71 154h187l-170 -301h-181z" />
<glyph unicode="&#x178;" horiz-adv-x="964" d="M20 1495h302l141 -444q4 -12 7 -26.5t7 -29.5q4 -16 6 -30q4 14 9 30q4 14 7 29.5t7 28.5l141 442h297l-319 -838v-657h-287v662zM244 1598v266h193v-266h-193zM523 1598v266h192v-266h-192z" />
<glyph unicode="&#x192;" horiz-adv-x="620" d="M-35 -356l19 219q10 -4 18 -4h18q39 0 52.5 27.5t17.5 68.5l60 682h-101l19 215h100l35 381q4 57 21.5 105t51 83t87 54.5t131.5 19.5q57 0 84 -10l-19 -219q-10 4 -18.5 4h-18.5q-39 0 -52 -28t-17 -68l-29 -322h121l-19 -215h-120l-66 -741q-4 -57 -21.5 -105.5 t-51.5 -83.5t-88 -54.5t-130 -19.5q-57 0 -84 11z" />
<glyph unicode="&#x2c6;" horiz-adv-x="819" d="M150 973l169 301h181l170 -301h-191l-71 153l-72 -153h-186z" />
<glyph unicode="&#x2dc;" horiz-adv-x="819" d="M123 973q2 51 11 96t29.5 78t53.5 51.5t86 18.5q35 0 62.5 -13.5t50.5 -29.5t42 -31t36 -15q53 0 63 84h139q-4 -51 -13 -96t-28.5 -77.5t-53.5 -51t-85 -18.5q-35 0 -62.5 13t-50.5 30q-23 16 -42 30.5t-35 14.5q-53 0 -64 -84h-139z" />
<glyph unicode="&#x394;" d="M0 492v512h250v-512h-250zM492 0v250h512v-250h-512zM492 492v512h512v-512h-512zM492 1245v250h512v-250h-512zM1245 492v512h250v-512h-250z" />
<glyph unicode="&#x3a9;" d="M0 492v512h250v-512h-250zM492 0v250h512v-250h-512zM492 492v512h512v-512h-512zM492 1245v250h512v-250h-512zM1245 492v512h250v-512h-250z" />
<glyph unicode="&#x3c0;" horiz-adv-x="1728" d="M92 748q0 160 60.5 300t166 245.5t246 166t299.5 60.5q160 0 300.5 -60.5t246 -166t165.5 -245.5t60 -300t-60 -300.5t-165.5 -246t-246 -166t-300.5 -60.5t-300 60.5t-245.5 166t-166 246t-60.5 300.5zM217 745q0 -135 51 -251.5t138.5 -204.5t205 -138.5t252.5 -50.5 t253 50.5t205 138.5t138 204.5t51 251.5t-51 253t-138 205t-205 138.5t-253 51.5t-252.5 -51.5t-205 -138.5t-138.5 -204.5t-51 -253.5zM610 299v897h342q70 0 126.5 -24.5t95 -65.5t60 -95.5t21.5 -111.5q0 -53 -20.5 -104.5t-58 -92t-92 -65.5t-119.5 -25h-150v-313h-205z M815 788h115q47 0 82 28t35 91q0 61 -36 87t-87 26h-109v-232z" />
<glyph unicode="&#x2000;" horiz-adv-x="970" />
<glyph unicode="&#x2001;" horiz-adv-x="1940" />
<glyph unicode="&#x2002;" horiz-adv-x="970" />
<glyph unicode="&#x2003;" horiz-adv-x="1940" />
<glyph unicode="&#x2004;" horiz-adv-x="646" />
<glyph unicode="&#x2005;" horiz-adv-x="485" />
<glyph unicode="&#x2006;" horiz-adv-x="323" />
<glyph unicode="&#x2007;" horiz-adv-x="323" />
<glyph unicode="&#x2008;" horiz-adv-x="242" />
<glyph unicode="&#x2009;" horiz-adv-x="388" />
<glyph unicode="&#x200a;" horiz-adv-x="107" />
<glyph unicode="&#x2010;" horiz-adv-x="501" d="M72 375v225h358v-225h-358z" />
<glyph unicode="&#x2011;" horiz-adv-x="501" d="M72 375v225h358v-225h-358z" />
<glyph unicode="&#x2012;" horiz-adv-x="501" d="M72 375v225h358v-225h-358z" />
<glyph unicode="&#x2013;" horiz-adv-x="778" d="M72 375v225h635v-225h-635z" />
<glyph unicode="&#x2014;" horiz-adv-x="1146" d="M72 375v225h1003v-225h-1003z" />
<glyph unicode="&#x2018;" horiz-adv-x="417" d="M70 985v166q0 61 13 115.5t34.5 98.5t48.5 77t51 53h168q-29 -45 -46 -115.5t-17 -167.5v-227h-252z" />
<glyph unicode="&#x2019;" horiz-adv-x="417" d="M33 985q29 45 46 115.5t17 167.5v227h252v-166q0 -61 -14.5 -115.5t-36 -98.5t-47 -76.5t-49.5 -53.5h-168z" />
<glyph unicode="&#x201a;" horiz-adv-x="417" d="M33 -221q29 45 46 115.5t17 166.5v228h252v-166q0 -61 -14.5 -115.5t-36 -98.5t-47 -77t-49.5 -53h-168z" />
<glyph unicode="&#x201c;" horiz-adv-x="794" d="M70 985v166q0 61 13 115.5t34.5 98.5t48.5 77t51 53h168q-29 -45 -46 -115.5t-17 -167.5v-227h-252zM446 985v166q0 61 13.5 115.5t35 98.5t48 77t51.5 53h168q-29 -45 -46.5 -115.5t-17.5 -167.5v-227h-252z" />
<glyph unicode="&#x201d;" horiz-adv-x="794" d="M33 985q29 45 46 115.5t17 167.5v227h252v-166q0 -61 -14.5 -115.5t-36 -98.5t-47 -76.5t-49.5 -53.5h-168zM410 985q29 45 46 115.5t17 167.5v227h252v-166q0 -61 -14.5 -115.5t-36 -98.5t-47 -76.5t-49.5 -53.5h-168z" />
<glyph unicode="&#x201e;" horiz-adv-x="794" d="M33 -221q29 45 46 115.5t17 166.5v228h252v-166q0 -61 -14.5 -115.5t-36 -98.5t-47 -77t-49.5 -53h-168zM410 -221q29 45 46 115.5t17 166.5v228h252v-166q0 -61 -14.5 -115.5t-36 -98.5t-47 -77t-49.5 -53h-168z" />
<glyph unicode="&#x2020;" horiz-adv-x="1013" d="M41 702v250h334v543h264v-543h334v-250h-334v-1069h-264v1069h-334z" />
<glyph unicode="&#x2021;" horiz-adv-x="1013" d="M41 158v250h334v294h-334v250h334v543h264v-543h334v-250h-334v-294h334v-250h-334v-525h-264v525h-334z" />
<glyph unicode="&#x2022;" horiz-adv-x="763" d="M41 778q0 70 26.5 131.5t72.5 107.5t108.5 72.5t132.5 26.5t132 -26.5t109.5 -72.5t74 -107.5t26.5 -131.5q0 -72 -26.5 -134t-74 -109.5t-109.5 -74t-132 -26.5t-132.5 26.5t-108.5 74t-72.5 110t-26.5 133.5z" />
<glyph unicode="&#x2026;" horiz-adv-x="1308" d="M82 0v289h272v-289h-272zM518 0v289h273v-289h-273zM954 0v289h273v-289h-273z" />
<glyph unicode="&#x202f;" horiz-adv-x="388" />
<glyph unicode="&#x2030;" horiz-adv-x="2017" d="M55 1133q0 82 18.5 152.5t55.5 122.5t89 82t120 30q70 0 122 -31t87 -83t52 -120.5t17 -146.5q0 -84 -18 -155t-55 -124t-90.5 -82.5t-120.5 -29.5q-55 0 -104.5 23.5t-88.5 71.5t-61.5 120.5t-22.5 169.5zM123 0l899 1495h258l-899 -1495h-258zM250 1133q0 -39 4 -76 t13 -65.5t25.5 -46t39.5 -17.5q25 0 42 17.5t27.5 46t14.5 65.5t4 76q0 37 -4 74.5t-14.5 66.5t-27 47t-38.5 18q-23 0 -39 -17t-26.5 -46t-15.5 -67t-5 -76zM791 360q0 82 18 153t55 123t89.5 82t119.5 30q70 0 122 -31t87 -83t52.5 -120.5t17.5 -146.5q0 -84 -18.5 -155 t-55.5 -124t-90 -83t-121 -30q-55 0 -104.5 24t-88 72t-61 120.5t-22.5 168.5zM985 360q0 -39 4 -75.5t13.5 -65.5t25.5 -46t39 -17q25 0 42 17t27.5 46t14.5 65.5t4 75.5q0 37 -4 75t-14.5 66.5t-26.5 47t-39 18.5t-39 -17.5t-26.5 -46t-15.5 -66.5t-5 -77zM1415 360 q0 82 18.5 153t55.5 123t89 82t120 30q70 0 122 -31t87 -83t52 -120.5t17 -146.5q0 -84 -18.5 -155t-55 -124t-90 -83t-120.5 -30q-55 0 -104.5 24t-88.5 72t-61.5 120.5t-22.5 168.5zM1610 360q0 -39 4 -75.5t13 -65.5t25.5 -46t39.5 -17q25 0 42 17t27.5 46t14.5 65.5 t4 75.5q0 37 -4 75t-14.5 66.5t-27 47t-38.5 18.5q-23 0 -39.5 -17.5t-26.5 -46t-15 -66.5t-5 -77z" />
<glyph unicode="&#x2039;" horiz-adv-x="352" d="M61 301v299l230 213v-264l-133 -98l133 -99v-264z" />
<glyph unicode="&#x203a;" horiz-adv-x="352" d="M61 88v264l134 99l-134 98v264l230 -213v-299z" />
<glyph unicode="&#x205f;" horiz-adv-x="485" />
<glyph unicode="&#x2122;" horiz-adv-x="1677" d="M66 1339v156h495v-156h-170v-741h-164v741h-161zM657 598v897h146l317 -438l307 438h152v-897h-164v637l-260 -383h-70l-264 371v-625h-164z" />
<glyph unicode="&#x2202;" d="M0 492v512h250v-512h-250zM492 0v250h512v-250h-512zM492 492v512h512v-512h-512zM492 1245v250h512v-250h-512zM1245 492v512h250v-512h-250z" />
<glyph unicode="&#x220f;" d="M0 492v512h250v-512h-250zM492 0v250h512v-250h-512zM492 492v512h512v-512h-512zM492 1245v250h512v-250h-512zM1245 492v512h250v-512h-250z" />
<glyph unicode="&#x2211;" d="M0 492v512h250v-512h-250zM492 0v250h512v-250h-512zM492 492v512h512v-512h-512zM492 1245v250h512v-250h-512zM1245 492v512h250v-512h-250z" />
<glyph unicode="&#x221a;" horiz-adv-x="944" d="M20 766h279l98 -322q4 -10 7.5 -24t7.5 -29q4 -16 8 -35q2 16 4 33q4 29 10 57l221 1049h269l-363 -1495h-260z" />
<glyph unicode="&#x221e;" horiz-adv-x="1382" d="M29 637v215h100v381q0 57 13.5 105t44 83t81.5 54.5t129 19.5q55 0 86 -10v-219q-10 4 -18 4h-19q-39 0 -50 -28t-11 -68v-322h209v381q0 57 13.5 105t44 83t81.5 54.5t129 19.5q55 0 86 -10v-219q-10 4 -18 4h-19q-39 0 -50 -28t-11 -68v-322h100v-215h-100v-637h-256 v637h-209v-637h-256v637h-100zM1055 0v852h256v-852h-256zM1055 991v273h256v-273h-256z" />
<glyph unicode="&#x222b;" d="M0 492v512h250v-512h-250zM492 0v250h512v-250h-512zM492 492v512h512v-512h-512zM492 1245v250h512v-250h-512zM1245 492v512h250v-512h-250z" />
<glyph unicode="&#x2248;" d="M0 492v512h250v-512h-250zM492 0v250h512v-250h-512zM492 492v512h512v-512h-512zM492 1245v250h512v-250h-512zM1245 492v512h250v-512h-250z" />
<glyph unicode="&#x2260;" horiz-adv-x="983" d="M29 637v215h100v381q0 57 13.5 105t44 83t81.5 54.5t129 19.5q55 0 86 -10v-219q-10 4 -18 4h-19q-39 0 -50 -28t-11 -68v-322h209v381q0 57 13.5 105t44 83t81.5 54.5t129 19.5q55 0 86 -10v-219q-10 4 -18 4h-19q-39 0 -50 -28t-11 -68v-322h100v-215h-100v-637h-256 v637h-209v-637h-256v637h-100z" />
<glyph unicode="&#x2264;" d="M0 492v512h250v-512h-250zM492 0v250h512v-250h-512zM492 492v512h512v-512h-512zM492 1245v250h512v-250h-512zM1245 492v512h250v-512h-250z" />
<glyph unicode="&#x2265;" d="M0 492v512h250v-512h-250zM492 0v250h512v-250h-512zM492 492v512h512v-512h-512zM492 1245v250h512v-250h-512zM1245 492v512h250v-512h-250z" />
<glyph unicode="&#x25ca;" d="M0 492v512h250v-512h-250zM492 0v250h512v-250h-512zM492 492v512h512v-512h-512zM492 1245v250h512v-250h-512zM1245 492v512h250v-512h-250z" />
<glyph unicode="&#x25fc;" horiz-adv-x="849" d="M0 0v850h850v-850h-850z" />
<glyph horiz-adv-x="0" />
<glyph d="M0 492v512h250v-512h-250zM492 0v250h512v-250h-512zM492 492v512h512v-512h-512zM492 1245v250h512v-250h-512zM1245 492v512h250v-512h-250z" />
</font>
</defs>
</svg>
